<svg width="302" height="202" viewBox="0 0 302 202" fill="none" xmlns="http://www.w3.org/2000/svg">
<path d="M174.689 89.3356C174.689 89.3356 174.689 89.2993 174.689 89.2389V88.9732C174.689 88.7316 174.689 88.3893 174.689 87.9544C174.689 87.0605 174.689 85.772 174.657 84.1533L174.717 84.2137L155.127 84.2499C155.172 84.2056 155.027 84.3506 155.228 84.1533V86.7786C155.228 87.6404 155.228 88.494 155.228 89.3275L155.131 89.2269L169.092 89.2712L173.211 89.2993H174.327H174.617C174.651 89.2959 174.686 89.2959 174.721 89.2993H174.633H174.351H173.26L169.12 89.392L155.091 89.4362H154.995V89.3396C154.995 88.5061 154.995 87.6524 154.995 86.7907V84.1573L155.095 84.0566L174.685 84.0929H174.757V84.1573C174.757 85.7921 174.733 87.0927 174.725 87.9947C174.725 88.4256 174.725 88.7598 174.725 89.0014C174.725 89.1061 174.725 89.1906 174.725 89.255C174.717 89.2833 174.705 89.3104 174.689 89.3356Z" fill="#E0E0E0"/>
<path d="M212.371 35.1286C212.367 35.0979 212.367 35.0668 212.371 35.036C212.371 34.9676 212.371 34.879 212.371 34.7703C212.371 34.5246 212.371 34.1864 212.371 33.7475C212.371 32.8536 212.35 31.5691 212.338 29.9463L212.399 30.0067L192.809 30.047C192.853 30.0027 192.708 30.1476 192.906 29.9463V35.1286L192.805 35.032L206.765 35.0763L210.889 35.1045H212.004H212.294H212.399C212.368 35.1083 212.337 35.1083 212.306 35.1045H212.028H210.933L206.834 35.1327L192.805 35.177H192.708V29.9544C192.906 29.7571 192.761 29.898 192.809 29.8537L212.399 29.894H212.459V29.9544C212.459 31.5932 212.431 32.8898 212.423 33.7918C212.423 34.2226 212.423 34.5609 212.423 34.7984C212.423 34.9031 212.423 34.9877 212.423 35.0562C212.408 35.0818 212.39 35.1061 212.371 35.1286Z" fill="#E0E0E0"/>
<path d="M285.02 112.747C285.016 112.716 285.016 112.685 285.02 112.654V112.388C285.02 112.147 285.02 111.804 285.02 111.37C285.02 110.476 285.02 109.187 284.987 107.564L285.048 107.625L265.458 107.665L265.559 107.564V112.747L265.462 112.65L279.423 112.694L283.542 112.722H284.657H284.947H285.052C285.052 112.722 285.024 112.722 284.959 112.722H284.681H283.59L279.491 112.751L265.462 112.795H265.362V107.584L265.462 107.488L285.052 107.524H285.088V107.584C285.088 109.223 285.064 110.52 285.056 111.426C285.056 111.857 285.056 112.191 285.056 112.433V112.686C285.045 112.707 285.033 112.727 285.02 112.747Z" fill="#E0E0E0"/>
<path d="M287.677 107.58C287.671 107.548 287.671 107.516 287.677 107.484C287.677 107.407 287.677 107.319 287.677 107.21C287.677 106.952 287.677 106.606 287.677 106.171C287.677 105.261 287.657 103.977 287.641 102.398L287.713 102.471L275.944 102.499C275.851 102.587 276.064 102.378 276.04 102.398V105.064C276.04 105.933 276.04 106.771 276.04 107.576L275.944 107.484L284.367 107.528L286.82 107.556H287.48H287.717C287.646 107.562 287.575 107.562 287.504 107.556H286.86L284.444 107.584L275.96 107.629H275.827V107.532C275.827 106.727 275.827 105.889 275.827 105.019V102.354C275.803 102.378 276.016 102.165 275.928 102.257L287.697 102.281H287.77V102.35C287.77 103.96 287.742 105.245 287.734 106.163C287.734 106.594 287.734 106.936 287.734 107.19C287.722 107.321 287.703 107.451 287.677 107.58Z" fill="#E0E0E0"/>
<path d="M102.499 170.98L98.0696 172.885L98.3675 146.611C98.5044 143.466 97.0589 142.125 96.2737 141.231C89.1424 133.122 78.508 139.005 78.4154 147.223L78.1496 170.703L73.837 170.654L74.2639 146.092C74.2961 143.325 76.4463 138.525 78.6167 136.806C90.6162 127.299 102.894 137.12 102.777 147.509L102.499 170.98Z" fill="#F5F5F5"/>
<path d="M102.499 170.98V170.509C102.499 170.199 102.499 169.744 102.499 169.148C102.499 167.94 102.523 166.188 102.539 163.913C102.555 161.638 102.583 158.88 102.612 155.663C102.628 154.052 102.644 152.338 102.66 150.521C102.66 148.701 102.825 146.764 102.45 144.775C102.076 142.691 101.231 140.721 99.9821 139.012C99.8171 138.791 99.66 138.565 99.4869 138.348C99.3137 138.131 99.1164 137.945 98.9312 137.724C98.5527 137.304 98.1493 136.907 97.7232 136.536C97.5178 136.339 97.2762 136.182 97.0507 136C96.8252 135.819 96.6038 135.634 96.3501 135.489C95.8622 135.164 95.3538 134.871 94.828 134.611C93.7521 134.07 92.6133 133.664 91.4376 133.403L90.5275 133.254L90.0725 133.178L89.6094 133.15L88.6753 133.089C88.3612 133.089 88.0471 133.109 87.733 133.121C85.1299 133.24 82.6102 134.076 80.4528 135.537C78.1826 137.075 76.403 139.233 75.3269 141.755C74.7863 143.056 74.4312 144.426 74.2719 145.826C74.1511 147.235 74.1833 148.689 74.1551 150.142C74.0907 155.969 74.0222 162.001 73.9538 168.182C73.9538 169.006 73.9444 169.827 73.9256 170.646L73.8249 170.541L78.1375 170.59L78.0368 170.69C78.0878 166.019 78.1402 161.456 78.1938 157C78.218 154.782 78.2435 152.596 78.2704 150.44C78.2704 149.366 78.2824 148.299 78.3066 147.239C78.3297 146.18 78.506 145.13 78.8301 144.122C79.491 142.161 80.7358 140.448 82.3977 139.214C82.5946 139.058 82.8003 138.915 83.0138 138.783L83.658 138.38C84.0952 138.149 84.5487 137.95 85.015 137.784C85.4759 137.616 85.9482 137.482 86.4284 137.382C86.666 137.329 86.9076 137.309 87.1451 137.269L87.5035 137.221H87.8659C88.8119 137.168 89.7607 137.248 90.6846 137.458C91.5851 137.674 92.454 138.006 93.2697 138.445C95.5907 139.733 97.3225 141.87 98.1017 144.408C98.3293 145.195 98.4644 146.006 98.5044 146.824C98.5044 147.026 98.5044 147.227 98.5245 147.424C98.5446 147.621 98.5245 147.827 98.5245 148.016C98.5245 148.419 98.5245 148.797 98.5245 149.184C98.5245 149.953 98.5245 150.71 98.4963 151.451C98.456 154.414 98.4238 157.137 98.3916 159.593C98.3232 164.501 98.2708 168.343 98.2346 170.896L98.2064 170.867L101.46 170.92H102.265H102.527H101.472L98.2024 170.9H98.1742V170.872C98.1742 168.319 98.2305 164.477 98.2748 159.569C98.299 157.112 98.3272 154.386 98.3554 151.423C98.3554 150.682 98.3554 149.925 98.3795 149.156C98.3795 148.753 98.3795 148.383 98.3795 147.988C98.3795 147.795 98.3795 147.585 98.3795 147.4L98.3554 146.808C98.2955 145.158 97.8055 143.552 96.934 142.149C96.0253 140.647 94.7381 139.41 93.2012 138.561C92.3992 138.132 91.5453 137.807 90.6604 137.595C89.748 137.39 88.8114 137.315 87.878 137.37H87.5236L87.1733 137.422C86.9357 137.458 86.6982 137.478 86.4646 137.531C85.5186 137.732 84.6042 138.062 83.7466 138.509L83.1144 138.888C82.9055 139.01 82.7038 139.144 82.5104 139.29C80.8771 140.505 79.6557 142.191 79.0113 144.122C78.6941 145.112 78.5232 146.143 78.5039 147.183C78.5039 148.24 78.4918 149.307 78.4677 150.384C78.4435 152.531 78.4193 154.718 78.3952 156.943C78.3469 161.373 78.2945 165.951 78.2422 170.634V170.735H78.1415L73.8249 170.686H73.7242V170.586C73.7242 169.78 73.7336 168.959 73.7524 168.121C73.8249 161.944 73.8934 155.912 73.9618 150.082C73.99 148.624 73.9618 147.187 74.0786 145.745C74.2429 144.327 74.6048 142.939 75.1537 141.622C75.7151 140.362 76.4409 139.183 77.312 138.114C78.1946 137.073 79.2114 136.154 80.336 135.38C82.5215 133.898 85.0749 133.051 87.7129 132.932C88.031 132.932 88.3491 132.896 88.6672 132.904L89.7504 132.968L90.3463 133.037L91.2483 133.186L91.651 133.274C92.769 133.536 93.8509 133.934 94.8723 134.458C95.4058 134.72 95.921 135.017 96.4145 135.348C96.6682 135.497 96.8856 135.698 97.1192 135.868C97.3527 136.037 97.5903 136.21 97.8037 136.407C98.23 136.786 98.6334 137.189 99.0117 137.615L99.5755 138.247C99.7486 138.469 99.9056 138.698 100.071 138.924C101.332 140.652 102.181 142.644 102.555 144.75C102.93 146.764 102.74 148.713 102.752 150.533C102.765 152.353 102.704 154.084 102.684 155.695C102.64 158.916 102.599 161.687 102.567 163.954C102.535 166.221 102.511 167.98 102.491 169.164C102.491 169.752 102.491 170.207 102.467 170.513C102.442 170.819 102.499 170.98 102.499 170.98Z" fill="#E0E0E0"/>
<path d="M68.9111 155.317L107.967 155.76C108.367 155.765 108.748 155.928 109.027 156.213C109.306 156.499 109.461 156.884 109.456 157.283L109.114 187.469C109.109 187.832 108.961 188.179 108.702 188.433C108.442 188.687 108.092 188.827 107.729 188.823L68.5522 188.378L68.9272 155.317L68.9111 155.317Z" fill="#E0E0E0"/>
<path d="M68.9116 155.233L103.259 155.576C103.693 155.58 104.107 155.757 104.41 156.066C104.714 156.376 104.882 156.794 104.878 157.227L104.584 186.622C104.578 187.156 104.361 187.666 103.98 188.04C103.598 188.414 103.084 188.621 102.55 188.615L68.6375 188.276C68.189 188.272 67.7606 188.089 67.4466 187.769C67.1326 187.448 66.9587 187.016 66.9632 186.568L67.2604 156.851C67.2647 156.417 67.4411 156.003 67.7508 155.7C68.0604 155.396 68.478 155.228 68.9116 155.233Z" fill="#EBEBEB"/>
<path d="M90.9423 169.18C90.9494 168.563 90.8324 167.95 90.598 167.378C90.3637 166.807 90.0169 166.288 89.5782 165.853C89.1395 165.418 88.6178 165.076 88.0442 164.846C87.4706 164.617 86.8568 164.505 86.2392 164.517C85.0511 164.553 83.9213 165.041 83.0809 165.881C82.2404 166.722 81.7526 167.851 81.7172 169.039C81.6986 170.047 82.0118 171.032 82.6084 171.845C83.2051 172.657 84.0521 173.25 85.0191 173.533L81.9387 179.863L89.8913 180.101L87.5398 173.549C88.5045 173.29 89.3585 172.723 89.9724 171.934C90.5863 171.146 90.9268 170.179 90.9423 169.18Z" fill="#E0E0E0"/>
<path d="M104.363 185.666C104.307 185.666 104.363 179.911 104.464 172.816C104.564 165.721 104.709 159.963 104.766 159.963C104.822 159.963 104.766 165.717 104.665 172.816C104.564 179.915 104.42 185.67 104.363 185.666Z" fill="#FAFAFA"/>
<path d="M95.9716 156.637C95.9716 156.694 90.91 156.75 84.6647 156.762C78.4193 156.774 73.3538 156.738 73.3538 156.682C73.3538 156.625 78.4153 156.573 84.6647 156.561C90.9141 156.549 95.9716 156.573 95.9716 156.637Z" fill="white"/>
<path d="M81.54 171.56C81.4612 171.475 81.3972 171.377 81.3508 171.27C81.2062 170.99 81.0902 170.696 81.0045 170.392C80.7163 169.381 80.7431 168.306 81.0812 167.311C81.4193 166.315 82.0527 165.446 82.897 164.819C83.148 164.63 83.4179 164.466 83.7024 164.332C83.8025 164.276 83.9115 164.238 84.0245 164.219C84.0245 164.252 83.5856 164.441 82.9816 164.932C82.1882 165.565 81.5931 166.413 81.267 167.375C80.9408 168.336 80.8972 169.371 81.1414 170.356C81.3387 171.133 81.5722 171.536 81.54 171.56Z" fill="white"/>
<path d="M83.3521 173.767C83.3239 173.815 83.0541 173.698 82.7481 173.509C82.442 173.32 82.2206 173.126 82.2488 173.078C82.2769 173.03 82.5508 173.147 82.8568 173.336C83.1628 173.525 83.3521 173.718 83.3521 173.767Z" fill="white"/>
<path d="M87.1855 134.157C86.9287 134.206 86.6692 134.239 86.4083 134.257C85.7051 134.351 85.0103 134.501 84.3306 134.704C82.072 135.36 80.0467 136.645 78.4915 138.409C76.9363 140.173 75.9155 142.343 75.5484 144.666C75.4272 145.366 75.3666 146.074 75.3672 146.784C75.3672 147.283 75.3672 147.565 75.3672 147.565C75.3455 147.5 75.3347 147.432 75.335 147.364C75.335 147.231 75.2947 147.038 75.2907 146.784C75.2622 146.068 75.3027 145.35 75.4115 144.642C75.7474 142.28 76.7676 140.068 78.3462 138.279C79.9247 136.49 81.9925 135.203 84.2943 134.575C84.983 134.373 85.6896 134.238 86.4043 134.173C86.654 134.144 86.8513 134.149 86.9842 134.145C87.0515 134.142 87.1189 134.146 87.1855 134.157Z" fill="white"/>
<path d="M75.1538 151.129C75.0621 150.733 75.0376 150.325 75.0813 149.921C75.0539 149.514 75.0961 149.106 75.2062 148.713C75.3275 149.515 75.3098 150.332 75.1538 151.129Z" fill="white"/>
<path d="M99.9701 38.9661H80.3804V44.1484H99.9701V38.9661Z" fill="#F5F5F5"/>
<path d="M91.6873 49.6085C91.6873 49.6085 91.6873 49.5763 91.6873 49.5159V49.2502C91.6873 49.0045 91.6873 48.6623 91.6873 48.2274C91.6873 47.3335 91.6873 46.049 91.6551 44.4262L91.7155 44.4866L72.1257 44.5269C72.17 44.4826 72.025 44.6235 72.2264 44.4262V47.0516C72.2264 47.916 72.2264 48.7656 72.2264 49.6005L72.1297 49.5039L86.0902 49.5481L90.2095 49.5763H91.3249H91.6148C91.6496 49.5729 91.6847 49.5729 91.7195 49.5763H91.6309H91.3491H90.2578L86.1587 49.6045L72.1297 49.6488H72.0331V49.5522C72.0331 48.7173 72.0331 47.8677 72.0331 47.0033V44.3779L72.1337 44.2772L91.7235 44.3175H91.7839V44.3779C91.7839 46.0127 91.7598 47.3133 91.7517 48.2153C91.7517 48.6462 91.7517 48.9804 91.7517 49.222C91.7517 49.3267 91.7517 49.4112 91.7517 49.4757C91.7517 49.5401 91.6913 49.6085 91.6873 49.6085Z" fill="#E0E0E0"/>
<path d="M282.132 25.4365H262.543V30.6188H282.132V25.4365Z" fill="#F5F5F5"/>
<path d="M273.85 36.079C273.847 36.0482 273.847 36.0171 273.85 35.9863V35.7206C273.85 35.475 273.85 35.1367 273.85 34.6978C273.85 33.8039 273.85 32.5194 273.817 30.8966L273.878 30.957L254.288 30.9973C254.332 30.953 254.187 31.0939 254.389 30.8966V31.553C254.389 31.7744 254.389 31.9959 254.389 32.2133V36.079L254.292 35.9823L268.253 36.0266L272.372 36.0548H273.487H273.777H273.882H273.789H273.511H272.42L268.321 36.083L254.292 36.1273H254.192V30.9047L254.292 30.804L273.882 30.8443H273.942V30.9047C273.942 32.5395 273.918 33.8401 273.91 34.7421C273.91 35.173 273.91 35.5072 273.91 35.7488C273.91 35.8535 273.91 35.938 273.91 36.0065C273.91 36.0749 273.854 36.079 273.85 36.079Z" fill="#E0E0E0"/>
<path d="M170.413 128.463H150.823V133.645H170.413V128.463Z" fill="#F5F5F5"/>
<path d="M162.13 139.105C162.127 139.073 162.127 139.041 162.13 139.009V138.743C162.13 138.501 162.13 138.159 162.13 137.724C162.13 136.83 162.11 135.546 162.098 133.923L162.158 133.983L142.568 134.024C142.613 133.979 142.468 134.12 142.665 133.923V139.097L142.568 139.001L156.529 139.045L160.648 139.073H161.763H162.053H162.158H162.065H161.788H160.696L156.597 139.101L142.544 139.202H142.443V133.931L142.544 133.83L162.134 133.871H162.194V133.931C162.194 135.566 162.17 136.866 162.162 137.768C162.162 138.199 162.162 138.533 162.162 138.775C162.162 138.88 162.162 138.964 162.162 139.029C162.153 139.055 162.142 139.08 162.13 139.105Z" fill="#E0E0E0"/>
<path d="M41.982 30.8483C41.9785 30.8175 41.9785 30.7864 41.982 30.7557C41.982 30.6872 41.982 30.5986 41.982 30.4899C41.982 30.2443 41.982 29.9061 41.982 29.4671C41.982 28.5732 41.982 27.2887 41.9498 25.666L42.0102 25.7264L22.3923 25.7707C22.4366 25.7264 22.2916 25.8713 22.4889 25.67V30.8483L22.3923 30.7517L36.3527 30.7959L40.472 30.8241H41.5874H41.8773H41.982C41.9513 30.8279 41.9202 30.8279 41.8894 30.8241H41.6116H40.5163L36.4212 30.8523L22.3923 30.8966H22.2916V25.674L22.3923 25.5734L41.982 25.6136H42.0424V25.674C42.0424 27.3129 42.0183 28.6095 42.0102 29.5114C42.0102 29.9423 42.0102 30.2805 42.0102 30.5181C42.0102 30.6228 42.0102 30.7074 42.0102 30.7758C42.0027 30.8007 41.9933 30.8249 41.982 30.8483Z" fill="#E0E0E0"/>
<path d="M237.336 180.286C237.336 180.286 237.336 180.254 237.336 180.193V179.927C237.336 179.682 237.336 179.344 237.336 178.905C237.336 178.011 237.336 176.726 237.304 175.103L237.364 175.164L217.774 175.204L217.875 175.103V177.729C217.875 178.596 217.875 179.446 217.875 180.278L217.778 180.181L231.739 180.225L235.858 180.254H236.973H237.267H237.368C237.368 180.254 237.34 180.254 237.279 180.254H236.998H235.906L231.807 180.282L217.778 180.326H217.682V180.229C217.682 179.395 217.682 178.545 217.682 177.681V175.055L217.782 174.954L237.372 174.995H237.433V175.055C237.433 176.69 237.408 177.991 237.4 178.893C237.4 179.323 237.4 179.658 237.4 179.899C237.4 180.004 237.4 180.089 237.4 180.157C237.4 180.225 237.34 180.29 237.336 180.286Z" fill="#E0E0E0"/>
<path d="M158.796 23.407C158.796 23.407 158.796 23.3708 158.796 23.3104V23.0446C158.796 22.803 158.796 22.4608 158.796 22.0259C158.796 21.132 158.796 19.8434 158.764 18.2247L158.824 18.2851L139.234 18.3213L139.335 18.2247V20.8581C139.335 21.7252 139.335 22.5748 139.335 23.407L139.238 23.3104L153.199 23.3547L157.318 23.3788H158.433H158.727C158.761 23.3755 158.794 23.3755 158.828 23.3788H158.739H158.457H157.366L153.267 23.407L139.238 23.4513H139.142V23.3547C139.142 22.5212 139.142 21.6715 139.142 20.8058V18.2328L139.242 18.1321L158.832 18.1724H158.892V18.2328C158.892 19.8676 158.868 21.1682 158.86 22.0702C158.86 22.501 158.86 22.8352 158.86 23.0768V23.3305C158.843 23.359 158.821 23.3848 158.796 23.407Z" fill="#E0E0E0"/>
<path d="M161.469 18.2247C161.466 18.1912 161.466 18.1575 161.469 18.124C161.469 18.0516 161.469 17.9589 161.469 17.8502C161.469 17.5965 161.469 17.2502 161.469 16.8113C161.469 15.9013 161.445 14.6208 161.429 13.0424L161.502 13.1108L149.732 13.139L149.828 13.0424V15.704C149.828 16.5697 149.828 17.4113 149.828 18.2166L149.736 18.12L158.155 18.1643L160.608 18.1925H161.268H161.506C161.435 18.1982 161.363 18.1982 161.292 18.1925H160.648L158.232 18.2166L149.748 18.2609H149.651V18.1683C149.651 17.363 149.651 16.5214 149.651 15.6557V13.0504C149.627 13.0504 149.84 12.8612 149.752 12.9498L161.522 12.9779H161.594V13.0504C161.594 14.6611 161.562 15.9416 161.554 16.8637C161.554 17.2945 161.554 17.6328 161.554 17.8865C161.554 18.1401 161.469 18.2287 161.469 18.2247Z" fill="#E0E0E0"/>
<path d="M35.177 146.973C35.1753 146.943 35.1753 146.912 35.177 146.881C35.177 146.812 35.177 146.724 35.177 146.615C35.177 146.369 35.177 146.031 35.177 145.596C35.177 144.702 35.177 143.414 35.1448 141.791L35.2052 141.851L15.6154 141.892L15.7161 141.791V144.42C15.7161 145.285 15.7161 146.134 15.7161 146.969L15.6195 146.873L29.5799 146.917L33.6992 146.945H34.8146H35.1085H35.2092C35.2092 146.945 35.181 146.945 35.1206 146.945H34.8387H33.7475L29.6484 146.973L15.6195 147.018H15.5228V146.973C15.5228 146.14 15.5228 145.29 15.5228 144.424V141.795C15.7242 141.598 15.5792 141.743 15.6235 141.698L35.2132 141.735H35.2736V141.795C35.2736 143.434 35.2495 144.73 35.2414 145.636C35.2414 146.067 35.2414 146.402 35.2414 146.643V146.897C35.181 146.973 35.181 146.973 35.177 146.973Z" fill="#E0E0E0"/>
<path d="M37.8507 141.799C37.8476 141.767 37.8476 141.735 37.8507 141.702C37.8507 141.626 37.8507 141.537 37.8507 141.429C37.8507 141.171 37.8507 140.825 37.8507 140.39C37.8507 139.48 37.8266 138.195 37.8105 136.617L37.8829 136.689L26.113 136.717C26.0244 136.806 26.2338 136.597 26.2096 136.617V139.282C26.2096 140.152 26.2096 140.99 26.2096 141.795L26.117 141.702L34.5368 141.747L36.989 141.775H37.6494H37.887C37.816 141.781 37.7446 141.781 37.6736 141.775H37.0293L34.6133 141.803L26.1291 141.847H26.0325V141.751C26.0325 140.945 26.0325 140.108 26.0325 139.238V136.573L26.1331 136.472L37.8507 136.544H37.9232V136.617C37.9232 138.227 37.891 139.512 37.8829 140.43C37.8829 140.861 37.8829 141.203 37.8829 141.457C37.8829 141.711 37.8507 141.807 37.8507 141.799Z" fill="#E0E0E0"/>
<path d="M96.8655 104.367C96.8619 104.336 96.8619 104.305 96.8655 104.275V104.009C96.8655 103.763 96.8655 103.425 96.8655 102.99C96.8655 102.092 96.8453 100.808 96.8332 99.1849L96.8936 99.2453L77.3039 99.2856C77.3482 99.2413 77.2032 99.3862 77.4006 99.1849V104.359L77.3039 104.263L91.2644 104.307L95.3836 104.335H96.499H96.7889H96.8936H96.801H96.5232H95.4279L91.3328 104.359L77.3039 104.403H77.2032V99.1285L77.3039 99.0279L96.8936 99.0681H96.954V99.1285C96.954 100.767 96.9299 102.064 96.9218 102.97C96.9218 103.397 96.9218 103.735 96.9218 103.973V104.23C96.91 104.279 96.891 104.325 96.8655 104.367Z" fill="#E0E0E0"/>
<path d="M99.5231 99.1848C99.5174 99.1529 99.5174 99.1201 99.5231 99.0882C99.5231 99.0117 99.5231 98.9231 99.5231 98.8103L99.503 97.7715C99.503 96.8654 99.503 95.5809 99.4667 94.0025L99.5392 94.075L87.7652 94.1031L87.8659 94.0025V96.6681C87.8659 97.5339 87.8659 98.3755 87.8659 99.1808L87.7693 99.0882L96.189 99.1325L98.6453 99.1566H99.3057H99.5432C99.4709 99.162 99.3982 99.162 99.3258 99.1566H98.6856L96.2696 99.1848L87.7854 99.2291H87.6927V99.1325C87.6927 98.3271 87.6927 97.4856 87.6927 96.6198V93.9542C87.6927 93.9743 87.886 93.7649 87.7934 93.8535L99.5674 93.8817H99.6399V93.9542C99.6399 95.5648 99.6117 96.8493 99.6036 97.7674C99.6036 98.1983 99.6036 98.5405 99.5835 98.7902C99.5634 99.0399 99.5271 99.1888 99.5231 99.1848Z" fill="#E0E0E0"/>
<path d="M279.596 188.806C279.596 188.863 222.195 188.911 151.411 188.911C80.6259 188.911 23.2097 188.851 23.2097 188.806C23.2097 188.762 80.5977 188.702 151.411 188.702C222.224 188.702 279.596 188.75 279.596 188.806Z" fill="#263238"/>
<path d="M24.3292 166.543L17.0933 176.368L29.278 185.436C30.0833 184.228 25.505 177.189 25.505 177.189L30.4014 171.085L24.3292 166.543Z" fill="#455A64"/>
<path d="M22.1467 173.863C22.0034 173.811 21.8459 173.814 21.7046 173.871C21.5632 173.929 21.4482 174.036 21.3816 174.173C21.325 174.315 21.3248 174.474 21.3809 174.616C21.437 174.758 21.5453 174.873 21.6836 174.938C21.8354 174.992 22.0017 174.987 22.1503 174.926C22.299 174.864 22.4196 174.75 22.489 174.604C22.5334 174.45 22.5163 174.284 22.4412 174.142C22.3661 174.001 22.2389 173.893 22.0863 173.843" fill="white"/>
<path d="M17.0771 176.392L17.8462 175.337L29.2296 184.502C29.2296 184.502 29.592 185.146 29.2296 185.48L17.0771 176.392Z" fill="#263238"/>
<path d="M25.7708 177.278C25.7265 177.338 25.4084 177.145 24.9654 177.117C24.5225 177.089 24.1883 177.226 24.1601 177.161C24.1319 177.097 24.4701 176.819 24.9936 176.859C25.5171 176.899 25.803 177.234 25.7708 177.278Z" fill="#263238"/>
<path d="M26.6365 178.76C26.6042 178.828 26.2741 178.736 25.8835 178.836C25.4929 178.937 25.2392 179.162 25.1788 179.114C25.1184 179.066 25.3358 178.712 25.8231 178.587C26.3103 178.462 26.6767 178.703 26.6365 178.76Z" fill="#263238"/>
<path d="M26.2218 180.83C26.1573 180.801 26.2983 180.427 26.6929 180.23C27.0875 180.032 27.462 180.097 27.4499 180.165C27.4378 180.234 27.1358 180.278 26.8177 180.459C26.4996 180.64 26.2862 180.866 26.2218 180.83Z" fill="#263238"/>
<path d="M26.713 175.764C26.6445 175.8 26.4352 175.514 26.0808 175.289C25.7265 175.063 25.3882 174.971 25.3922 174.886C25.3963 174.802 25.7949 174.785 26.2217 175.059C26.6486 175.333 26.7774 175.74 26.713 175.764Z" fill="#263238"/>
<path d="M53.7883 125.415C54.0058 126.647 54.3521 137.128 54.5735 142.657C54.795 148.185 54.2433 150.903 53.6111 152.144C52.979 153.384 29.137 170.952 27.321 175.16L21.281 170.292C21.281 170.292 30.1397 154.391 33.9167 151.499C37.6937 148.608 44.9619 145.955 44.9619 145.955L42.8962 115.678L52.7978 115.138L53.7883 125.415Z" fill="#263238"/>
<path d="M31.6295 176.259L31.5248 188.448L46.7093 188.657C46.6409 187.208 38.8251 184.184 38.8251 184.184L39.2278 176.368L31.6295 176.259Z" fill="#455A64"/>
<path d="M34.1382 183.479C33.9916 183.521 33.8659 183.616 33.7849 183.746C33.7039 183.875 33.6734 184.029 33.6993 184.18C33.7366 184.328 33.8291 184.456 33.9578 184.539C34.0865 184.621 34.2417 184.651 34.3919 184.623C34.5466 184.577 34.6789 184.475 34.7636 184.338C34.8483 184.2 34.8794 184.037 34.8509 183.878C34.7969 183.727 34.6865 183.603 34.543 183.533C34.3994 183.462 34.234 183.45 34.0818 183.499" fill="white"/>
<path d="M31.5208 188.492V187.184L46.1174 187.941C46.1174 187.941 46.7859 188.251 46.7013 188.726L31.5208 188.492Z" fill="#263238"/>
<path d="M39.0587 184.127C39.0587 184.204 38.6842 184.232 38.3178 184.466C37.9514 184.699 37.75 185.005 37.6816 184.977C37.6131 184.949 37.7299 184.518 38.1809 184.244C38.6318 183.97 39.0909 184.059 39.0587 184.127Z" fill="#263238"/>
<path d="M40.6694 184.824C40.6694 184.896 40.3593 185.017 40.1056 185.327C39.852 185.637 39.7714 185.972 39.703 185.964C39.6345 185.955 39.5862 185.541 39.9124 185.158C40.2385 184.776 40.6694 184.739 40.6694 184.824Z" fill="#263238"/>
<path d="M41.5351 186.729C41.4667 186.729 41.37 186.37 41.5633 185.968C41.7566 185.565 42.1109 185.408 42.1391 185.468C42.1673 185.529 41.9539 185.746 41.7969 186.08C41.6398 186.414 41.6076 186.721 41.5351 186.729Z" fill="#263238"/>
<path d="M38.9621 182.335C38.9299 182.404 38.5916 182.295 38.1567 182.335C37.7219 182.376 37.4078 182.484 37.3514 182.42C37.295 182.356 37.6292 182.098 38.1245 182.078C38.6198 182.058 38.9983 182.279 38.9621 182.335Z" fill="#263238"/>
<path d="M54.8835 113.886C54.8835 114.599 56.0391 132.642 50.1401 145.697C50.1401 145.697 48.0985 149.78 47.7241 151.564C47.3496 153.348 39.7191 182.936 39.7191 182.936L30.9007 182.613C30.9007 182.613 29.4913 167.791 30.9007 159.21C32.31 150.63 34.9273 151.636 34.9273 146.096C34.9273 140.555 33.6106 129.067 33.6106 129.067C33.6106 129.067 31.6859 125.93 31.0295 119.846C30.494 114.905 32.8214 109.61 32.8214 109.61L35.1206 105.539L54.5734 104.52L54.8835 113.886Z" fill="#263238"/>
<path d="M54.8835 113.886C54.8835 113.886 54.8835 113.677 54.8835 113.27C54.8835 112.863 54.8594 112.259 54.8432 111.466C54.807 109.876 54.7466 107.532 54.6741 104.504V104.46H54.6258L35.173 105.45H35.1327L35.1086 105.487C34.3959 106.751 33.6107 108.132 32.8053 109.558C32.2064 111.002 31.7387 112.498 31.4081 114.027C31.0428 115.637 30.8791 117.286 30.9208 118.936C31.0434 120.659 31.3128 122.368 31.7262 124.045C32.1249 125.807 32.7517 127.508 33.5905 129.107V129.067C33.9247 132.071 34.2348 135.183 34.4965 138.388C34.6254 139.999 34.7381 141.61 34.8186 143.265C34.8589 144.07 34.8911 144.916 34.8952 145.749C34.8952 146.152 34.8952 146.583 34.871 146.997C34.8423 147.413 34.7913 147.827 34.718 148.238C34.5532 149.064 34.2611 149.86 33.8522 150.597C33.4496 151.35 33.0469 152.095 32.6443 152.88C31.915 154.474 31.3835 156.151 31.0618 157.874C30.3611 161.336 30.2202 164.936 30.1799 168.564C30.1799 173.352 30.4054 178.055 30.8 182.601V182.698H30.8927L39.711 183.02H39.7956L39.8157 182.935C42.3727 173.026 44.7565 163.765 46.8584 155.437L47.6194 152.357C47.7523 151.846 47.8369 151.338 47.9939 150.855C48.1509 150.372 48.3281 149.893 48.5133 149.426C48.8918 148.491 49.3187 147.585 49.7213 146.704L50.0354 146.047C50.147 145.833 50.2464 145.612 50.3334 145.387C50.5146 144.94 50.6958 144.501 50.877 144.062C52.1292 140.815 53.0611 137.452 53.6594 134.024C54.5218 129.139 54.9663 124.19 54.9882 119.23C55.0124 115.759 54.8714 113.874 54.8714 113.874C54.8714 113.874 54.8714 113.991 54.8714 114.22C54.8714 114.45 54.8714 114.8 54.8956 115.251C54.9198 116.157 54.9359 117.494 54.8956 119.23C54.8583 124.185 54.4098 129.13 53.5547 134.011C52.9426 137.429 51.9986 140.779 50.736 144.014L50.1965 145.33C50.1079 145.556 50.0072 145.769 49.8985 145.987C49.7898 146.204 49.6851 146.426 49.5804 146.647C49.1777 147.529 48.7509 148.435 48.3724 149.373C48.1831 149.844 48.0019 150.324 47.8449 150.815C47.6879 151.306 47.5953 151.825 47.4664 152.325C47.2127 153.339 46.959 154.362 46.6973 155.405C44.5591 163.724 42.1794 172.986 39.6305 182.895L39.7352 182.819L30.9168 182.493L31.0215 182.589C30.6188 178.051 30.3853 173.352 30.4014 168.572C30.4417 164.948 30.5826 161.365 31.2792 157.926C31.6 156.219 32.1259 154.558 32.8456 152.977C33.208 152.2 33.6509 151.463 34.0536 150.698C34.4597 149.941 34.7476 149.126 34.9072 148.282C34.9836 147.863 35.036 147.439 35.0643 147.014C35.0643 146.611 35.1045 146.168 35.0884 145.753C35.0884 144.916 35.0522 144.082 35.0119 143.257C34.9314 141.606 34.8146 139.979 34.6817 138.376C34.4133 135.155 34.1086 132.045 33.7677 129.047V129.022C32.9285 127.444 32.2991 125.763 31.8953 124.021C31.4843 122.356 31.2149 120.659 31.09 118.948C31.0466 117.313 31.2062 115.679 31.5651 114.084C31.8896 112.57 32.3463 111.088 32.9301 109.654L35.2253 105.579L35.1609 105.619L54.6137 104.568L54.5614 104.524C54.658 107.548 54.7305 109.892 54.7788 111.482C54.807 112.288 54.8271 112.876 54.8432 113.286C54.8594 113.697 54.8835 113.886 54.8835 113.886Z" fill="#455A64"/>
<path d="M48.5577 76.9375C48.5577 76.9375 43.323 76.0114 43.8102 82.748C44.1162 86.7747 45.3001 93.6844 45.9564 98.0936C46.1819 99.6197 46.6812 102.35 48.6986 103.952L63.1543 113.955L67.7165 108.499L54.807 96.2051L52.7937 84.0446L48.5577 76.9375Z" fill="#455A64"/>
<path d="M49.1738 52.6567C50.0035 53.3248 50.6599 54.1831 51.0875 55.1588C51.5151 56.1345 51.7012 57.1989 51.63 58.2618C51.5495 59.2926 51.2636 60.4644 51.936 61.2496C52.6085 62.0348 53.897 62.0066 54.5332 62.8039C55.2782 63.7461 54.654 65.1474 54.9359 66.3192C55.0796 66.8665 55.4133 67.3448 55.8773 67.6687C56.3413 67.9925 56.9054 68.1408 57.4687 68.0869C56.1472 69.1682 54.5534 69.8648 52.8622 70.1002L51.5414 68.4533C52.0327 69.0331 51.8998 69.9552 51.4287 70.5471C50.9169 71.0981 50.257 71.4896 49.5281 71.6746C47.7934 72.2083 45.9589 72.3344 44.1675 72.0432C42.3761 71.752 40.676 71.0512 39.1997 69.9955" fill="#263238"/>
<path d="M29.8337 61.7449C30.0914 60.9395 30.5263 60.2268 30.6994 59.4174C31.0699 57.6739 30.2202 55.7089 31.0658 54.1385C31.6698 53.0231 32.9503 52.4755 34.1664 52.101C35.3824 51.7265 36.679 51.4124 37.585 50.5225C38.2454 49.8702 38.6239 48.9682 39.2842 48.3159C40.2265 47.3817 41.6197 47.0636 42.9405 46.9831C44.3043 46.8513 45.6789 47.0746 46.9309 47.6314C47.5525 47.915 48.0988 48.3409 48.5255 48.8746C48.9522 49.4083 49.2473 50.0349 49.3871 50.7037C49.4918 51.3561 49.4113 52.0446 49.6207 52.6768C49.8462 53.3694 50.3898 53.909 50.728 54.5573C51.0668 55.2535 51.1648 56.0425 51.0067 56.8004C50.8485 57.5584 50.4432 58.2423 49.8542 58.745L40.5204 70.8008C38.5594 71.5417 33.808 70.6478 32.294 69.1902C30.7799 67.7325 29.1854 63.7381 29.8337 61.7449Z" fill="#263238"/>
<path d="M49.6086 57.2149C49.2059 54.4767 47.1402 51.2433 44.4222 51.7426L36.0307 54.5613C35.2253 54.7143 35.7971 56.0633 35.8777 56.8968L37.7017 75.8221C37.7017 75.8221 36.5662 76.6274 36.1636 76.4744C36.1406 76.4664 36.1158 76.4657 36.0925 76.4725C36.0691 76.4793 36.0485 76.4932 36.0334 76.5122C36.0184 76.5313 36.0096 76.5546 36.0084 76.5788C36.0072 76.6031 36.0136 76.6271 36.0267 76.6476C37.0454 78.1173 41.7928 84.5076 46.7094 82.5466C47.8046 82.1077 46.5926 78.6569 46.7094 77.3804L46.5644 74.1148C46.4557 72.4478 46.4034 71.7632 46.4034 71.7793C46.4034 71.7954 49.8743 70.9257 50.2488 66.2829C50.4381 63.9837 50.0354 60.255 49.6086 57.2149Z" fill="#FFBF9D"/>
<path d="M49.0247 61.4268C49.0372 61.58 48.9895 61.7322 48.8918 61.8509C48.7941 61.9696 48.654 62.0457 48.5012 62.063C48.4268 62.0749 48.3507 62.0718 48.2775 62.0539C48.2043 62.0359 48.1354 62.0034 48.075 61.9584C48.0145 61.9133 47.9637 61.8566 47.9256 61.7916C47.8874 61.7266 47.8627 61.6545 47.8529 61.5798C47.8404 61.4265 47.8881 61.2744 47.9858 61.1557C48.0835 61.0369 48.2236 60.9609 48.3764 60.9436C48.4508 60.9316 48.5269 60.9347 48.6001 60.9527C48.6733 60.9707 48.7422 61.0031 48.8027 61.0482C48.8631 61.0933 48.9139 61.15 48.952 61.215C48.9902 61.28 49.0149 61.352 49.0247 61.4268Z" fill="#263238"/>
<path d="M43.3069 61.7852C43.3205 61.938 43.2737 62.0901 43.1767 62.209C43.0796 62.3279 42.9399 62.4041 42.7874 62.4214C42.7131 62.4327 42.6372 62.4292 42.5642 62.411C42.4912 62.3928 42.4226 62.3603 42.3622 62.3154C42.3019 62.2704 42.2511 62.2139 42.2128 62.1492C42.1745 62.0844 42.1495 62.0127 42.1392 61.9382C42.1267 61.7849 42.1743 61.6328 42.272 61.5141C42.3697 61.3953 42.5098 61.3192 42.6626 61.302C42.7368 61.29 42.8127 61.2932 42.8856 61.3112C42.9586 61.3292 43.0272 61.3617 43.0873 61.4068C43.1474 61.4519 43.1979 61.5086 43.2356 61.5736C43.2733 61.6386 43.2976 61.7106 43.3069 61.7852Z" fill="#263238"/>
<path d="M49.2341 59.4859C49.1697 59.5946 48.6221 59.2483 47.9375 59.349C47.253 59.4497 46.8141 59.9167 46.7296 59.8322C46.645 59.7476 46.7295 59.6067 46.9269 59.3933C47.1746 59.1152 47.5134 58.9345 47.8823 58.8835C48.2513 58.8326 48.6263 58.9148 48.9402 59.1155C49.1657 59.2725 49.2663 59.4376 49.2341 59.4859Z" fill="#263238"/>
<path d="M43.0854 59.9973C43.0048 60.098 42.4693 59.7074 41.7324 59.7396C40.9955 59.7719 40.4721 60.1866 40.3875 60.094C40.3029 60.0014 40.4237 59.8765 40.6533 59.6913C40.9545 59.4426 41.3299 59.301 41.7203 59.2887C42.1089 59.2734 42.4915 59.3882 42.8075 59.6148C43.037 59.7799 43.1216 59.949 43.0854 59.9973Z" fill="#263238"/>
<path d="M45.3926 64.334C45.7177 64.2013 46.0589 64.1119 46.4073 64.0682C46.5644 64.04 46.7174 63.9958 46.7335 63.883C46.7356 63.7147 46.6849 63.5499 46.5885 63.4119C46.4073 63.0334 46.2181 62.6347 46.0168 62.2039C45.2114 60.5006 44.6275 59.0994 44.696 59.0672C44.7645 59.0349 45.4691 60.3879 46.2664 62.0871C46.4597 62.5099 46.6449 62.8925 46.8181 63.2951C46.9358 63.482 46.983 63.7047 46.9509 63.9233C46.9325 63.9822 46.9007 64.0361 46.8582 64.0807C46.8156 64.1254 46.7633 64.1597 46.7053 64.181C46.6181 64.2109 46.5274 64.2298 46.4355 64.2374C46.0929 64.3107 45.7429 64.3431 45.3926 64.334Z" fill="#263238"/>
<path d="M46.4033 71.7874C44.247 71.9854 42.078 71.5811 40.1378 70.6196C40.1378 70.6196 41.9297 73.7202 46.4838 72.939L46.4033 71.7874Z" fill="#FF9A6C"/>
<path d="M43.4639 66.1782C43.5357 66.0191 43.6465 65.8806 43.7861 65.7756C43.9568 65.6944 44.1507 65.6759 44.3337 65.7232C44.6056 65.7629 44.8573 65.8901 45.0504 66.0856C45.1452 66.1843 45.212 66.3065 45.2439 66.4395C45.2757 66.5726 45.2715 66.7118 45.2316 66.8427C45.1592 67.1084 44.7645 67.2453 44.4947 67.3017C44.2153 67.3425 43.9303 67.2841 43.6894 67.1366C43.5846 67.0889 43.4932 67.0162 43.423 66.925C43.3528 66.8337 43.306 66.7266 43.2867 66.6131C43.3046 66.4546 43.3659 66.3041 43.4639 66.1782Z" fill="#FF9A6C"/>
<path d="M43.5928 65.2884C43.6935 65.2884 43.7499 65.9608 44.374 66.4037C44.9981 66.8467 45.7229 66.7138 45.735 66.8064C45.7471 66.899 45.586 66.9514 45.276 66.9836C44.8736 67.0204 44.4713 66.9134 44.1404 66.6816C43.8212 66.4613 43.6014 66.1243 43.5284 65.7434C43.4881 65.4655 43.5445 65.2884 43.5928 65.2884Z" fill="#263238"/>
<path d="M43.0291 57.5209C42.9767 57.694 42.3405 57.6618 41.6036 57.8108C40.8667 57.9598 40.2829 58.2135 40.1741 58.0564C40.1258 57.988 40.2144 57.8189 40.4439 57.6336C40.7514 57.4046 41.1073 57.2491 41.4843 57.1793C41.8613 57.1095 42.2492 57.1272 42.6183 57.231C42.9002 57.3115 43.0492 57.4363 43.0291 57.5209Z" fill="#263238"/>
<path d="M48.8435 57.1786C48.7267 57.3317 48.2193 57.2229 47.6355 57.2632C47.0516 57.3035 46.5362 57.4444 46.4073 57.3035C46.351 57.235 46.4073 57.082 46.6288 56.929C46.92 56.7371 47.2587 56.6298 47.6073 56.6189C47.9537 56.594 48.3 56.668 48.6059 56.8324C48.8153 56.9532 48.8958 57.0981 48.8435 57.1786Z" fill="#263238"/>
<path d="M34.1743 55.2217C34.577 54.5694 35.3582 54.2352 36.083 53.9573C39.2132 52.7487 42.4764 51.9173 45.8034 51.4809C46.206 52.1614 45.8356 53.0916 45.2114 53.5869C44.5873 54.0821 43.782 54.2794 43.037 54.5573C42.2921 54.8351 41.523 55.27 41.2129 56.0069C40.9029 56.7438 41.1646 57.7142 40.8747 58.5115C40.3794 59.8886 38.4587 60.3315 37.9795 61.7046C37.6091 62.7475 38.2131 63.8548 38.3822 64.9501C38.4595 65.506 38.4174 66.0719 38.2586 66.6102C38.0999 67.1485 37.8281 67.6467 37.4615 68.0716C37.0949 68.4966 36.6418 68.8384 36.1326 69.0743C35.6234 69.3103 35.0697 69.4349 34.5085 69.4398C34.283 65.4964 34.0562 61.5556 33.828 57.6175C33.7596 56.7961 33.7274 55.9102 34.1743 55.2217Z" fill="#263238"/>
<path d="M26.2338 65.1796C26.8579 64.6199 27.6391 64.1367 27.8847 63.3394C28.2471 62.1757 27.3129 60.8107 27.9169 59.7517C28.4645 58.7853 30.0792 58.8376 30.5906 57.8511C30.9933 57.078 30.5302 56.3975 30.6792 55.721C30.8282 55.0445 31.7946 54.4526 32.4791 54.5331L37.8507 62.3328C38.35 64.9501 38.8533 66.3594 38.2936 67.8735C37.9234 68.6887 37.6439 69.5421 37.4601 70.4183C37.3393 71.3042 37.5688 72.3068 38.2896 72.8343C35.0683 73.088 32.0563 71.4048 29.2699 69.774L26.3344 68.0506C26.0131 67.8969 25.736 67.6641 25.5291 67.3742C25.0902 66.6574 25.6137 65.7353 26.2338 65.1796Z" fill="#263238"/>
<path d="M29.2014 68.9807C29.3138 69.0169 29.43 69.0399 29.5477 69.0492C29.8836 69.0813 30.2225 69.0568 30.5504 68.9767C31.0736 68.8514 31.5552 68.5919 31.9476 68.2237C32.4659 67.7249 32.7911 67.0588 32.8657 66.3433C32.9141 65.9284 32.8785 65.508 32.761 65.1071C32.6166 64.6799 32.4162 64.2737 32.165 63.8991C31.8987 63.5189 31.6911 63.1008 31.549 62.6589C31.4735 62.433 31.4499 62.1929 31.4799 61.9566C31.5098 61.7203 31.5926 61.4938 31.7221 61.2939C32.012 60.8912 32.5556 60.8066 33.063 60.6053C33.337 60.5068 33.5754 60.3288 33.7475 60.0939C33.906 59.8428 33.9834 59.549 33.969 59.2523C33.8994 58.6838 33.7767 58.123 33.6026 57.5773C33.5407 57.3124 33.5407 57.0368 33.6026 56.7719C33.6735 56.5048 33.8378 56.272 34.0656 56.1156C34.5556 55.8331 35.1107 55.6832 35.6763 55.6807C36.2616 55.6614 36.8325 55.4937 37.3353 55.1935C37.8246 54.8952 38.2218 54.4674 38.4829 53.9573C38.6972 53.4675 38.8331 52.9471 38.8856 52.4151C38.9414 51.9226 39.0466 51.4369 39.1996 50.9655C39.3692 50.5367 39.6271 50.1485 39.9566 49.8259C40.5644 49.2493 41.349 48.8946 42.1834 48.8193C42.8791 48.7598 43.5774 48.8995 44.1967 49.2219C44.6625 49.4603 45.0824 49.7793 45.4369 50.1642C45.7332 50.5001 45.9899 50.869 46.202 51.2635C46.202 51.2635 46.202 51.2353 46.1738 51.1789C46.1408 51.0989 46.1031 51.021 46.0611 50.9454C45.9073 50.653 45.7194 50.38 45.5014 50.132C45.1471 49.7316 44.7245 49.3976 44.2531 49.1454C43.6273 48.8014 42.9161 48.6436 42.2035 48.6904C41.3291 48.7545 40.5031 49.117 39.864 49.7172C39.5119 50.0573 39.2372 50.4694 39.0587 50.9252C38.899 51.4054 38.7884 51.9005 38.7285 52.403C38.6726 52.9176 38.5368 53.4202 38.3258 53.8929C38.0803 54.3681 37.71 54.7676 37.2548 55.0485C36.775 55.3299 36.2322 55.4864 35.6763 55.5035C35.0704 55.5022 34.4752 55.6636 33.9529 55.9706C33.6916 56.1484 33.5029 56.4142 33.4214 56.7196C33.3508 57.0175 33.3508 57.3277 33.4214 57.6256C33.5919 58.161 33.7132 58.7109 33.7838 59.2685C33.8004 59.5274 33.7356 59.785 33.5985 60.0053C33.443 60.2096 33.2319 60.3648 32.9905 60.4523C32.7529 60.553 32.4952 60.6214 32.2456 60.7261C31.9856 60.8242 31.7564 60.9896 31.5812 61.2053C31.439 61.4276 31.3479 61.6788 31.3144 61.9406C31.281 62.2024 31.3061 62.4684 31.3879 62.7193C31.5387 63.1754 31.7558 63.6069 32.0322 63.9998C32.2774 64.3558 32.4738 64.7431 32.616 65.1514C32.7301 65.5322 32.7684 65.9317 32.7288 66.3272C32.6628 67.0158 32.3579 67.6597 31.8671 68.1472C31.4913 68.5111 31.0281 68.7718 30.5222 68.9042C30.0913 69.0167 29.6424 69.0428 29.2014 68.9807Z" fill="#455A64"/>
<path d="M24.909 63.4361C24.8563 63.5151 24.8207 63.6043 24.8043 63.6978C24.7507 63.974 24.7994 64.2602 24.9412 64.5032C25.0395 64.6766 25.1775 64.8243 25.3439 64.934C25.5513 65.0595 25.79 65.1237 26.0324 65.1192C26.327 65.1128 26.6142 65.0257 26.8627 64.8673C27.1111 64.709 27.3114 64.4856 27.4418 64.2213C27.5949 63.918 27.6736 63.5826 27.6713 63.2428C27.6615 62.8777 27.5851 62.5174 27.4458 62.1798C27.1921 61.4832 26.725 60.8026 26.717 59.9893C26.7017 59.789 26.7271 59.5877 26.7914 59.3974C26.8557 59.2072 26.9578 59.0318 27.0914 58.8819C27.4179 58.6123 27.8374 58.4821 28.2592 58.5195C28.7285 58.5538 29.2002 58.5047 29.6524 58.3746C29.8894 58.2781 30.0896 58.1089 30.2242 57.8914C30.3538 57.6751 30.4349 57.4333 30.4618 57.1827C30.485 56.7018 30.4457 56.2199 30.345 55.7492C30.2729 55.3073 30.299 54.855 30.4215 54.4244C30.6497 53.6024 31.1844 52.8991 31.9154 52.4594C32.6093 52.1059 33.3796 51.9289 34.1582 51.944C34.8502 51.9455 35.538 51.8368 36.1957 51.6218C36.7305 51.4256 37.2206 51.1244 37.6373 50.736C37.9564 50.4412 38.228 50.0989 38.4426 49.7212C38.6315 49.408 38.7612 49.0627 38.8251 48.7025C38.7053 49.0425 38.5557 49.3712 38.3782 49.685C37.8709 50.5316 37.0895 51.1795 36.1635 51.5212C35.5113 51.7207 34.8322 51.8185 34.1502 51.8111C33.3489 51.7885 32.5546 51.9656 31.8389 52.3265C31.0701 52.7773 30.5026 53.5047 30.2524 54.36C30.1235 54.8141 30.0947 55.2908 30.1678 55.7572C30.2621 56.2126 30.3013 56.6777 30.2846 57.1424C30.2751 57.3633 30.2051 57.5774 30.0822 57.7613C29.9594 57.9452 29.7884 58.0919 29.588 58.1853C29.1577 58.3074 28.7092 58.3524 28.2632 58.3182C27.7962 58.2773 27.3318 58.422 26.9706 58.7209C26.8231 58.8888 26.7114 59.085 26.6422 59.2975C26.5729 59.5101 26.5477 59.7344 26.568 59.957C26.5858 60.3751 26.6856 60.7856 26.8619 61.165C27.019 61.5274 27.1921 61.8657 27.325 62.2039C27.4601 62.5246 27.5365 62.8669 27.5505 63.2146C27.556 63.5322 27.487 63.8466 27.3491 64.1327C27.2323 64.3796 27.05 64.5896 26.8221 64.7401C26.5943 64.8907 26.3295 64.9758 26.0566 64.9864C25.8327 64.9944 25.6111 64.94 25.4163 64.8293C25.2497 64.7321 25.1109 64.5933 25.0137 64.4267C24.8725 64.2026 24.8141 63.9362 24.8486 63.6737C24.8687 63.5287 24.9211 63.4401 24.909 63.4361Z" fill="#263238"/>
<path d="M58.8257 65.3568C58.9214 65.6292 58.9214 65.926 58.8257 66.1984C58.7725 66.3547 58.6848 66.4971 58.5691 66.6149C58.4534 66.7327 58.3126 66.823 58.1572 66.8789C57.9501 66.94 57.73 66.9422 57.5216 66.8853C57.3132 66.8284 57.1248 66.7147 56.9774 66.5568C56.8083 66.3708 56.71 66.1314 56.6996 65.8803C56.6918 65.6065 56.7341 65.3336 56.8244 65.0749C56.9935 64.5313 57.3438 63.9394 57.2915 63.2267C57.2661 62.8654 57.1656 62.5133 56.9964 62.193C56.8272 61.8726 56.5931 61.5911 56.309 61.3664C56.0115 61.1282 55.6712 60.9492 55.3064 60.8389C54.9337 60.7356 54.5494 60.6801 54.1628 60.6738C53.7881 60.6707 53.4146 60.6316 53.0474 60.557C52.7046 60.4863 52.3979 60.2966 52.1817 60.0215C51.9901 59.7391 51.8826 59.4082 51.8716 59.0672C51.8537 58.7348 51.8808 58.4016 51.9521 58.0766C52.1289 57.4634 52.2263 56.8301 52.2421 56.1921C52.2096 55.6257 52.0092 55.0818 51.6662 54.6298C51.3763 54.2711 51.021 53.9705 50.6193 53.7439C50.3258 53.5702 50.0446 53.3764 49.7777 53.1641C49.5589 52.9767 49.3807 52.7464 49.2543 52.4876C49.2543 52.4876 49.2543 52.4876 49.2543 52.544C49.2702 52.5984 49.2918 52.6511 49.3187 52.701C49.4191 52.8967 49.5558 53.0716 49.7214 53.2164C49.9824 53.4436 50.2611 53.6496 50.5549 53.8325C50.939 54.061 51.2776 54.3586 51.5535 54.7103C51.8727 55.1436 52.055 55.6625 52.077 56.2002C52.0531 56.8237 51.9516 57.4419 51.775 58.0404C51.6971 58.3808 51.6659 58.7303 51.6824 59.0792C51.6974 59.455 51.8173 59.8191 52.0286 60.1302C52.2687 60.4408 52.6111 60.6563 52.995 60.7382C53.3728 60.8158 53.757 60.8576 54.1426 60.863C54.5154 60.8679 54.886 60.9193 55.246 61.0161C55.5876 61.1223 55.907 61.2901 56.1882 61.5113C56.4528 61.72 56.6714 61.9812 56.8301 62.2785C56.9888 62.5758 57.0842 62.9028 57.1103 63.2388C57.1667 63.8871 56.8445 64.4468 56.6674 65.0307C56.5743 65.3108 56.5334 65.6056 56.5466 65.9004C56.5641 66.1818 56.6795 66.4482 56.8727 66.6534C57.0381 66.8267 57.249 66.9499 57.4811 67.009C57.7132 67.0681 57.9573 67.0607 58.1854 66.9876C58.3521 66.923 58.5018 66.8212 58.6232 66.69C58.7446 66.5589 58.8345 66.4017 58.8861 66.2306C58.9591 66.0207 58.9703 65.7943 58.9183 65.5783C58.9008 65.4996 58.8694 65.4246 58.8257 65.3568Z" fill="#263238"/>
<path d="M54.9762 96.8977V92.4442C55.4755 89.9436 55.2379 86.98 54.0742 84.6969C53.23 83.2253 52.2967 81.8066 51.2797 80.4487L46.8504 74.6946C44.4102 76.4704 40.5889 75.1859 37.3112 73.994C37.3112 73.994 34.0899 75.7858 32.5678 77.469C30.9853 79.2407 36.3971 101.408 36.3971 101.408C33.9449 106.312 30.78 110.669 30.3008 115.138L55.9104 116.125L54.8232 104.383L54.9762 96.8977Z" fill="#455A64"/>
<path d="M54.6218 104.508C54.5963 104.342 54.5896 104.173 54.6016 104.005C54.6016 103.638 54.6016 103.199 54.6016 102.64C54.6218 101.432 54.6459 99.8734 54.6741 98.1379C54.7023 96.4024 54.7546 94.7877 54.811 93.636C54.8392 93.0602 54.8674 92.5931 54.8915 92.271C54.8943 92.104 54.9159 91.9379 54.956 91.7757C54.9722 91.9418 54.9722 92.109 54.956 92.275C54.956 92.6415 54.956 93.0804 54.956 93.6401C54.9358 94.8481 54.9076 96.4064 54.8795 98.1419C54.8513 99.8774 54.803 101.492 54.7466 102.644C54.7184 103.22 54.6902 103.687 54.662 104.009C54.6683 104.176 54.6548 104.344 54.6218 104.508Z" fill="#263238"/>
<path d="M66.3193 108.559C66.3193 108.559 68.8158 108.696 70.3459 109.662C71.8761 110.629 74.3726 112.135 75.3994 113.999C75.8705 114.857 74.5297 115.038 73.8653 114.543C73.2009 114.047 72.1902 113.105 71.6868 112.992L71.1835 112.876C71.643 113.916 72.1551 114.932 72.7177 115.92C73.2371 116.725 73.6881 118.062 72.1257 118.122C72.1257 118.122 71.0748 119.491 70.0117 118.477C70.0117 118.477 69.1822 119.721 67.8454 117.997C67.8454 117.997 67.0642 118.984 66.7421 118.606C66.4199 118.227 65.3529 117.631 65.0428 116.399C64.5776 114.965 64.04 113.555 63.4321 112.175L66.3193 108.559Z" fill="#FFBF9D"/>
<path d="M122.213 73.9537C122.491 73.9537 133.923 72.7457 133.923 72.7457C133.923 72.7457 134.893 68.099 134.841 66.891C134.789 65.683 133.975 57.6901 133.975 57.6901L138.256 55.6767C138.256 55.6767 143.978 74.9725 142.729 76.5751C141.481 78.1777 139.134 79.6152 138.932 79.6233C138.731 79.6313 127.855 84.4553 120.289 81.9466C112.723 79.438 122.213 73.9537 122.213 73.9537Z" fill="#FFBF9D"/>
<path d="M112.195 84.3707C113.878 86.0418 116.777 87.431 121.617 86.223C131.185 83.8312 138.356 81.7937 141.207 80.2635C144.058 78.7334 142.947 71.8961 143.188 71.586C143.909 70.6518 143.116 68.6466 142.089 68.3325C139.162 67.4466 134.068 67.7969 133.81 68.0627C132.308 69.6412 133.677 71.5579 133.677 71.5579L121.062 73.2128C119.511 73.1401 117.956 73.2387 116.427 73.5068" fill="#455A64"/>
<path d="M116.427 73.5068L116.729 73.4424C116.93 73.4061 117.228 73.3538 117.623 73.3055C118.765 73.1617 119.916 73.1133 121.066 73.1605L133.677 71.4693L133.617 71.6102C133.203 71.0007 132.999 70.2725 133.037 69.5365C133.071 69.1558 133.196 68.7888 133.4 68.4654C133.502 68.303 133.618 68.1494 133.746 68.0064C133.796 67.9691 133.852 67.9392 133.911 67.9178L134.056 67.8816C134.152 67.8574 134.245 67.8493 134.338 67.8292C135.9 67.649 137.476 67.6167 139.045 67.7326C139.868 67.7827 140.687 67.8958 141.493 68.0708C141.694 68.1151 141.896 68.1755 142.105 68.2278C142.32 68.2963 142.517 68.4119 142.681 68.5661C143.001 68.8703 143.245 69.2455 143.394 69.6613C143.553 70.0779 143.61 70.5269 143.559 70.97C143.522 71.2006 143.435 71.4205 143.305 71.6143C143.269 71.6545 143.273 71.7633 143.269 71.868V72.1901C143.297 73.0558 143.337 73.9377 143.313 74.8235C143.32 76.0811 143.114 77.3307 142.705 78.52C142.495 79.1158 142.134 79.6471 141.658 80.0622C141.412 80.255 141.141 80.4147 140.853 80.5374C140.587 80.6783 140.305 80.787 140.048 80.9159C138.944 81.387 137.837 81.7736 136.746 82.1239C135.654 82.4742 134.583 82.8124 133.524 83.1225C129.312 84.3305 125.471 85.309 122.274 86.1103C121.51 86.3122 120.736 86.4722 119.954 86.5894C119.254 86.687 118.547 86.7247 117.84 86.7022C116.705 86.6779 115.585 86.4345 114.543 85.9854C113.889 85.6968 113.279 85.3173 112.731 84.858C112.538 84.702 112.357 84.531 112.191 84.3466C112.191 84.3466 112.376 84.5238 112.759 84.8258C113.314 85.2684 113.926 85.6341 114.579 85.913C115.615 86.3408 116.723 86.5689 117.844 86.5854C118.544 86.6022 119.243 86.5591 119.934 86.4566C120.71 86.3341 121.479 86.1701 122.238 85.9653C125.459 85.16 129.268 84.1694 133.468 82.9373C134.519 82.6272 135.59 82.297 136.689 81.9346C137.789 81.5722 138.88 81.1897 139.971 80.7266C140.237 80.6018 140.515 80.4931 140.776 80.3521C141.045 80.2338 141.298 80.0823 141.529 79.9012C141.979 79.5106 142.319 79.0096 142.516 78.4475C142.913 77.2739 143.11 76.0422 143.1 74.8034C143.124 73.9216 143.1 73.0478 143.055 72.178V71.8478C143.055 71.7914 143.055 71.7351 143.055 71.6747C143.052 71.6425 143.052 71.6102 143.055 71.578C143.065 71.5532 143.075 71.5289 143.088 71.5056L143.108 71.4733C143.221 71.3082 143.295 71.1196 143.325 70.9217C143.372 70.5122 143.319 70.0975 143.168 69.7137C143.033 69.3291 142.81 68.9816 142.516 68.699C142.373 68.5652 142.203 68.4648 142.017 68.405C141.815 68.3527 141.614 68.2963 141.417 68.248C140.621 68.0755 139.813 67.9638 139.001 67.9138C137.448 67.7951 135.888 67.8248 134.342 68.0024C134.249 68.0024 134.157 68.0265 134.068 68.0507L133.939 68.0789C133.911 68.0898 133.884 68.1033 133.859 68.1191C133.737 68.2513 133.628 68.3942 133.532 68.546C133.341 68.8422 133.225 69.1809 133.194 69.5325C133.159 70.2246 133.348 70.9094 133.734 71.4854L133.814 71.6102H133.673L121.054 73.2209C119.911 73.1629 118.765 73.1952 117.627 73.3176C117.224 73.3578 116.93 73.4021 116.729 73.4303C116.528 73.4585 116.427 73.5068 116.427 73.5068Z" fill="#263238"/>
<path d="M82.2701 86.6208L77.1315 77.3885L174.324 23.2922C175.443 22.669 176.765 22.5161 177.997 22.8671C179.23 23.2182 180.272 24.0445 180.896 25.1643L181.336 25.9559C181.96 27.0757 182.112 28.3972 181.761 29.6297C181.41 30.8622 180.584 31.9047 179.464 32.528L82.2721 86.6243L82.2701 86.6208Z" fill="#4D32BB"/>
<path d="M163.77 37.7952L151.869 16.4139C151.812 16.3104 151.775 16.1966 151.761 16.079C151.748 15.9613 151.758 15.8421 151.79 15.7282C151.822 15.6143 151.877 15.5079 151.951 15.415C152.024 15.3222 152.115 15.2448 152.219 15.1872L157.679 12.1479C157.783 12.0903 157.897 12.0536 158.014 12.04C158.132 12.0264 158.251 12.0361 158.365 12.0685C158.479 12.101 158.585 12.1555 158.678 12.2291C158.771 12.3027 158.849 12.3938 158.906 12.4973L170.807 33.8786L163.77 37.7952Z" fill="#4D32BB"/>
<path d="M140.359 27.839L149.032 43.4219C149.383 44.0515 150.177 44.2778 150.807 43.9274L155.563 41.2797C156.193 40.9293 156.419 40.1349 156.069 39.5053L147.396 23.9224C147.045 23.2928 146.251 23.0665 145.621 23.4169L140.864 26.0645C140.235 26.4149 140.008 27.2094 140.359 27.839Z" fill="#4D32BB"/>
<path d="M148.017 26.9289L153.386 36.5763L164.314 30.4938L158.945 20.8464L148.017 26.9289Z" fill="#4D32BB"/>
<path d="M172.901 24.1036C172.929 24.1519 153.855 34.8226 130.307 47.9335C106.759 61.0443 87.6244 71.6345 87.6244 71.5821C87.6244 71.5298 106.666 60.8631 130.222 47.7482C153.778 34.6334 172.873 24.0513 172.901 24.1036Z" fill="#263238"/>
<path d="M42.9083 104.456C50.0757 117.341 65.1878 122.576 76.6638 116.194C88.1398 109.811 91.643 94.1878 84.4755 81.3185C77.3081 68.4493 62.2 63.1985 50.72 69.5808C39.24 75.963 35.7448 91.5865 42.9083 104.456ZM78.2584 84.7815C83.2796 93.8012 80.8274 104.742 72.7821 109.215C64.7368 113.689 54.1507 110.021 49.1295 100.993C44.1082 91.965 46.5604 81.0326 54.6017 76.555C62.6429 72.0773 73.2371 75.7617 78.2584 84.7815Z" fill="#4D32BB"/>
<path d="M93.4921 68.171L98.7952 77.6988C99.5004 78.9657 101.099 79.4211 102.366 78.716L102.795 78.4771C104.062 77.7719 104.518 76.1732 103.812 74.9062L98.5093 65.3784C97.8042 64.1115 96.2055 63.6561 94.9385 64.3612L94.5093 64.6001C93.2424 65.3053 92.7869 66.904 93.4921 68.171Z" fill="#4D32BB"/>
<path d="M103.677 62.5019L108.98 72.0297C109.685 73.2967 111.284 73.7521 112.551 73.0469L112.98 72.808C114.247 72.1028 114.702 70.5041 113.997 69.2372L108.694 59.7094C107.989 58.4424 106.39 57.987 105.123 58.6922L104.694 58.9311C103.427 59.6363 102.971 61.235 103.677 62.5019Z" fill="#4D32BB"/>
<path d="M98.3956 65.232C98.448 65.2038 99.6761 67.3661 101.146 70.064C102.616 72.7618 103.763 74.9604 103.711 74.9886C103.659 75.0168 102.43 72.8585 100.961 70.1566C99.4909 67.4547 98.3433 65.232 98.3956 65.232Z" fill="#263238"/>
<path d="M93.7208 68.5539C93.7732 68.5257 94.9731 70.5914 96.4066 73.1605C97.84 75.7295 98.9554 77.8435 98.9071 77.8717C98.8588 77.8999 97.6548 75.8342 96.2375 73.2853C94.8201 70.7364 93.6725 68.5821 93.7208 68.5539Z" fill="#263238"/>
<path d="M108.644 59.6228C108.696 59.5947 109.948 61.7449 111.442 64.4266C112.936 67.1084 114.104 69.3109 114.051 69.3391C113.999 69.3673 112.751 67.2131 111.257 64.5313C109.763 61.8496 108.595 59.651 108.644 59.6228Z" fill="#263238"/>
<path d="M103.727 62.5906C103.775 62.5624 105.004 64.7005 106.461 67.3661C107.919 70.0318 109.066 72.1981 109.014 72.2424C108.962 72.2867 107.742 70.1324 106.28 67.4668C104.818 64.8012 103.675 62.6188 103.727 62.5906Z" fill="#263238"/>
<path d="M132.932 48.0663C133.401 48.1215 133.874 48.0002 134.258 47.7261C134.643 47.452 134.911 47.0446 135.012 46.5833C135.112 46.122 135.037 45.6399 134.802 45.2307C134.566 44.8215 134.187 44.5147 133.738 44.3698C134.028 44.0724 134.218 43.6912 134.279 43.2801C134.341 42.8691 134.272 42.449 134.082 42.0794C133.892 41.7097 133.59 41.4093 133.22 41.2205C132.85 41.0318 132.429 40.9643 132.018 41.0277C132.001 40.6189 131.879 40.2213 131.663 39.8738C131.447 39.5263 131.145 39.2405 130.786 39.0443C130.427 38.8482 130.023 38.7482 129.614 38.7543C129.205 38.7603 128.804 38.8721 128.451 39.0788C127.99 38.7023 127.417 38.4906 126.822 38.4775C126.228 38.4644 125.646 38.6505 125.169 39.0063C124.769 38.9299 124.354 38.9845 123.987 39.1622C123.62 39.3398 123.32 39.631 123.132 39.9926C122.943 40.3542 122.876 40.7668 122.941 41.1694C123.005 41.572 123.198 41.9431 123.49 42.2276" fill="#263238"/>
<path d="M124.762 40.8827H125.165C127.195 40.8844 129.15 41.6507 130.641 43.0288C132.132 44.407 133.049 46.2961 133.21 48.32C133.512 52.2218 133.794 56.5344 133.762 58.6283C133.685 62.9771 129.361 63.6213 129.361 63.6213L129.711 68.8318L119.189 68.4896L118.316 49.6045C117.945 45.0987 120.252 41.1324 124.762 40.8827Z" fill="#FFBF9D"/>
<path d="M129.397 63.6213C127.384 63.6158 125.415 63.0331 123.723 61.9422C123.723 61.9422 125.117 65.2239 129.441 64.8454L129.397 63.6213Z" fill="#FF9A6C"/>
<path d="M130.83 52.407C130.832 52.5684 130.769 52.7237 130.657 52.8397C130.545 52.9556 130.392 53.0229 130.23 53.0272C130.152 53.0326 130.073 53.0224 129.998 52.9972C129.924 52.9719 129.855 52.9321 129.796 52.8801C129.736 52.828 129.688 52.7648 129.654 52.6939C129.619 52.6231 129.599 52.5461 129.594 52.4674C129.594 52.306 129.657 52.1508 129.768 52.0344C129.88 51.9181 130.033 51.8495 130.194 51.8433C130.273 51.8378 130.352 51.8482 130.427 51.8737C130.502 51.8992 130.571 51.9393 130.631 51.9918C130.69 52.0443 130.738 52.108 130.772 52.1793C130.807 52.2506 130.826 52.328 130.83 52.407Z" fill="#263238"/>
<path d="M132.272 50.4501C132.195 50.5307 131.724 50.1844 131.064 50.1844C130.404 50.1844 129.908 50.5146 129.836 50.434C129.763 50.3535 129.88 50.2528 130.094 50.0958C130.382 49.8973 130.726 49.7932 131.076 49.7978C131.422 49.7963 131.76 49.9065 132.038 50.1119C132.24 50.2689 132.308 50.4179 132.272 50.4501Z" fill="#263238"/>
<path d="M124.827 52.1171C124.83 52.2809 124.768 52.4393 124.655 52.5578C124.542 52.6763 124.387 52.7451 124.223 52.7493C124.144 52.7548 124.065 52.7446 123.991 52.7194C123.916 52.6941 123.847 52.6543 123.788 52.6023C123.729 52.5502 123.68 52.4869 123.646 52.4161C123.611 52.3453 123.591 52.2683 123.587 52.1896C123.585 52.0279 123.648 51.8721 123.76 51.7555C123.872 51.6389 124.025 51.5707 124.187 51.5655C124.265 51.5594 124.344 51.5689 124.418 51.5934C124.493 51.6179 124.562 51.6569 124.621 51.7082C124.681 51.7594 124.73 51.822 124.765 51.8922C124.8 51.9623 124.821 52.0388 124.827 52.1171Z" fill="#263238"/>
<path d="M125.725 50.5548C125.648 50.6353 125.177 50.289 124.517 50.289C123.856 50.289 123.361 50.6192 123.289 50.5387C123.216 50.4582 123.333 50.3575 123.546 50.2005C123.835 50.002 124.178 49.8979 124.529 49.9025C124.875 49.901 125.212 50.0112 125.491 50.2166C125.692 50.3736 125.761 50.5186 125.725 50.5548Z" fill="#263238"/>
<path d="M128.125 55.5036C128.476 55.3931 128.84 55.3282 129.208 55.3103C129.377 55.3103 129.538 55.262 129.57 55.1452C129.584 54.9699 129.545 54.7944 129.457 54.6419L128.958 53.3453C128.265 51.497 127.75 49.9789 127.839 49.9548C127.927 49.9306 128.535 51.4004 129.228 53.2446C129.393 53.6996 129.554 54.1345 129.707 54.5493C129.811 54.7556 129.841 54.9918 129.792 55.2177C129.766 55.2773 129.728 55.3304 129.679 55.373C129.63 55.4156 129.572 55.4464 129.51 55.4633C129.417 55.4909 129.321 55.5044 129.224 55.5036C128.859 55.5492 128.49 55.5492 128.125 55.5036Z" fill="#263238"/>
<path d="M126.309 47.9938C126.22 48.1629 125.652 47.9938 124.948 47.9536C124.243 47.9133 123.655 48.0462 123.591 47.869C123.562 47.7844 123.687 47.6355 123.941 47.4985C124.268 47.3369 124.631 47.262 124.996 47.2811C125.357 47.2939 125.709 47.4023 126.015 47.5952C126.244 47.7522 126.349 47.9173 126.309 47.9938Z" fill="#263238"/>
<path d="M132.312 47.7079C132.171 47.8569 131.62 47.7079 130.959 47.7079C130.299 47.7079 129.751 47.8086 129.61 47.6475C129.554 47.571 129.643 47.418 129.888 47.2771C130.227 47.0997 130.606 47.015 130.988 47.0314C131.367 47.0366 131.739 47.1436 132.063 47.3415C132.296 47.4784 132.373 47.6314 132.312 47.7079Z" fill="#263238"/>
<path d="M132.8 46.3469C132.8 46.3469 131.664 43.6289 130.355 42.9927C128.773 42.2196 128.088 43.9551 126.578 43.5283C125.068 43.1014 123.558 42.3646 122.012 43.5283C120.321 44.8007 121.11 45.6986 120.997 47.6234C120.554 55.419 119.121 57.6176 118.73 53.9453C118.686 53.5426 117.571 53.2205 117.41 51.5293C117.2 49.3267 117.124 46.6489 117.623 45.0866C118.026 43.7699 118.795 42.8598 120.144 41.8653C122.278 40.2868 125.201 40.2546 127.186 40.468C129.171 40.6814 132.989 42.9484 132.8 46.3469Z" fill="#263238"/>
<path d="M119.004 53.8245C119 53.6654 118.963 53.5089 118.896 53.3644C118.829 53.2199 118.734 53.0905 118.616 52.9839C118.498 52.8774 118.359 52.7959 118.209 52.7445C118.058 52.6932 117.898 52.6729 117.74 52.6849C116.934 52.7614 116.028 53.2164 116.077 54.8875C116.161 57.8511 119.121 57.1545 119.125 57.0659C119.129 56.9773 119.052 55.0647 119.004 53.8245Z" fill="#FFBF9D"/>
<path d="M118.444 55.9707C118.444 55.9707 118.396 56.0109 118.308 56.0512C118.187 56.1064 118.05 56.1136 117.925 56.0713C117.729 55.9557 117.568 55.7897 117.459 55.5907C117.349 55.3917 117.294 55.167 117.301 54.9399C117.285 54.687 117.327 54.4338 117.422 54.199C117.447 54.1061 117.495 54.0209 117.561 53.9508C117.627 53.8806 117.709 53.8276 117.8 53.7963C117.859 53.7783 117.923 53.7818 117.98 53.8061C118.036 53.8305 118.083 53.874 118.11 53.9292C118.151 54.0097 118.134 54.0701 118.151 54.0741C118.167 54.0782 118.211 54.0218 118.183 53.901C118.167 53.8275 118.124 53.7628 118.062 53.7198C118.021 53.6899 117.975 53.6684 117.926 53.6567C117.877 53.6449 117.826 53.6431 117.776 53.6514C117.655 53.6787 117.543 53.7367 117.45 53.8199C117.358 53.9031 117.288 54.0087 117.249 54.1265C117.129 54.3859 117.075 54.6708 117.092 54.956C117.128 55.5519 117.45 56.1036 117.897 56.2163C117.977 56.2373 118.06 56.2399 118.141 56.2239C118.222 56.2078 118.298 56.1736 118.364 56.1237C118.445 56.0432 118.457 55.9707 118.444 55.9707Z" fill="#FF9A6C"/>
<path d="M119.081 48.0824C119.443 48.3779 119.874 48.5786 120.333 48.6663C120.564 48.7024 120.8 48.6538 120.997 48.5295C121.195 48.4051 121.341 48.2134 121.408 47.9898C121.444 47.7844 121.408 47.5428 121.529 47.3858C121.65 47.2288 121.992 47.2569 122.238 47.2851C123.099 47.3777 124.11 46.4274 124.331 45.5899C124.443 45.7505 124.612 45.8624 124.804 45.9028C124.995 45.9432 125.195 45.9091 125.362 45.8073C125.636 45.64 125.879 45.426 126.079 45.1752C126.196 45.0154 126.349 44.8862 126.527 44.7986C126.704 44.7109 126.9 44.6675 127.098 44.6718C127.306 44.7438 127.523 44.7912 127.742 44.8128C128.145 44.7805 128.322 44.3255 128.382 43.939C128.443 43.5524 128.491 43.1054 128.821 42.8961C129.16 42.7633 129.535 42.7533 129.88 42.8679C130.239 42.9242 130.686 42.8397 130.794 42.4894C130.809 42.3958 130.805 42.3001 130.782 42.2081C130.759 42.1161 130.718 42.0297 130.661 41.9538C130.422 41.5947 130.068 41.3269 129.657 41.1939C129.247 41.0609 128.803 41.0704 128.398 41.221C128.256 40.7254 127.969 40.2835 127.575 39.9515C127.18 39.6195 126.696 39.4124 126.183 39.3567C125.67 39.301 125.153 39.3992 124.696 39.6386C124.239 39.8781 123.864 40.2481 123.619 40.7015C123.305 40.4143 122.927 40.2072 122.516 40.0978C122.105 39.9885 121.673 39.9801 121.259 40.0734C120.844 40.1668 120.457 40.3591 120.133 40.6339C119.808 40.9087 119.555 41.258 119.395 41.6518C119.032 41.5551 118.649 41.5672 118.294 41.6865C117.938 41.8058 117.625 42.027 117.394 42.3227C117.163 42.6184 117.024 42.9755 116.995 43.3495C116.965 43.7235 117.047 44.098 117.228 44.4262C116.952 44.5625 116.716 44.7666 116.54 45.0195C116.365 45.2723 116.257 45.5656 116.226 45.8718C116.226 46.4838 116.81 47.0798 117.401 46.9348C117.279 47.176 117.253 47.455 117.329 47.7146C117.406 47.9742 117.579 48.1946 117.813 48.3307C118.047 48.4667 118.324 48.508 118.587 48.4461C118.851 48.3842 119.081 48.2238 119.23 47.9978" fill="#263238"/>
<path d="M128.616 42.0907C128.616 42.0907 128.616 42.0907 128.616 42.1471C128.616 42.2035 128.616 42.2357 128.596 42.3042C128.554 42.5051 128.481 42.6981 128.378 42.8759C128.215 43.1546 127.99 43.3927 127.722 43.5726C127.367 43.8146 126.943 43.9347 126.514 43.9148L126.562 43.8504C126.649 44.1163 126.627 44.4058 126.502 44.6557C126.369 44.9207 126.198 45.1648 125.994 45.3805C125.896 45.5063 125.784 45.6211 125.66 45.7228C125.441 45.8669 125.178 45.9286 124.918 45.8969C124.657 45.8652 124.417 45.7421 124.239 45.5497L124.347 45.5174C124.306 45.8251 124.2 46.1207 124.037 46.3849C123.874 46.6492 123.658 46.8763 123.401 47.0516C123.12 47.2609 122.778 47.3726 122.427 47.3697C122.098 47.3518 121.774 47.2797 121.468 47.1563L121.549 47.1201C121.394 47.4786 121.152 47.7928 120.844 48.0341C120.704 48.1543 120.539 48.2416 120.36 48.2896C120.182 48.3377 119.995 48.3453 119.813 48.312C119.502 48.2442 119.217 48.0869 118.994 47.8594C118.771 47.6319 118.619 47.3441 118.557 47.0315L118.626 47.0637C118.312 47.226 117.953 47.2771 117.607 47.2086C117.349 47.1595 117.106 47.0505 116.898 46.8905C116.769 46.789 116.657 46.6665 116.568 46.5281C116.535 46.4801 116.511 46.427 116.495 46.3711C116.608 46.5563 116.754 46.7188 116.926 46.8503C117.132 46.9987 117.369 47.0966 117.619 47.1362C117.948 47.1984 118.288 47.1443 118.581 46.9831L118.638 46.9509V47.0154C118.699 47.3064 118.843 47.5733 119.053 47.7836C119.264 47.9938 119.531 48.1382 119.822 48.1992C119.988 48.2282 120.158 48.2197 120.32 48.1745C120.483 48.1292 120.633 48.0482 120.76 47.9375C121.048 47.7081 121.275 47.4106 121.42 47.0717L121.444 47.0194H121.501C121.792 47.1366 122.101 47.2046 122.415 47.2207C122.739 47.2233 123.056 47.1202 123.317 46.9268C123.558 46.7612 123.762 46.5471 123.916 46.2982C124.07 46.0493 124.17 45.771 124.211 45.4812V45.3403L124.303 45.449C124.408 45.5647 124.539 45.653 124.686 45.7063C124.833 45.7597 124.99 45.7764 125.145 45.755C125.289 45.7358 125.427 45.6834 125.547 45.602C125.664 45.5083 125.769 45.4016 125.862 45.2839C126.061 45.0784 126.229 44.8451 126.361 44.5913C126.42 44.4783 126.456 44.3545 126.467 44.2273C126.479 44.1001 126.464 43.972 126.425 43.8504L126.401 43.7779H126.478C126.889 43.8034 127.297 43.6946 127.641 43.4679C127.905 43.2977 128.128 43.0707 128.294 42.8035C128.442 42.5868 128.551 42.3455 128.616 42.0907Z" fill="#455A64"/>
<path d="M128.116 57.7142C128.092 57.6055 127.372 57.7827 126.703 57.2914C126.035 56.8002 125.926 56.0109 125.825 56.0311C125.725 56.0512 125.725 56.2404 125.797 56.5666C125.896 56.9922 126.143 57.3688 126.494 57.6296C126.829 57.8792 127.247 57.9889 127.661 57.9357C127.972 57.8874 128.133 57.7625 128.116 57.7142Z" fill="#263238"/>
<path d="M150.448 170.376L153.307 180.117C153.307 180.117 164.179 180.479 164.876 182.231L146.168 188.448L141.086 173.449L150.448 170.376Z" fill="#455A64"/>
<path d="M147.259 181.232C147.098 181.347 146.984 181.517 146.941 181.71C146.897 181.903 146.926 182.106 147.022 182.279C147.13 182.445 147.298 182.562 147.49 182.608C147.683 182.654 147.885 182.624 148.057 182.525C148.228 182.403 148.348 182.221 148.393 182.016C148.438 181.811 148.406 181.596 148.302 181.413C148.171 181.252 147.982 181.148 147.776 181.122C147.57 181.096 147.361 181.152 147.195 181.276" fill="#E0E0E0"/>
<path d="M163.821 181.526C163.821 181.526 164.775 181.611 164.876 182.231L146.168 188.448L145.717 186.914L163.805 181.518" fill="#263238"/>
<path d="M153.577 179.92C153.605 180.012 153.174 180.205 152.812 180.648C152.45 181.091 152.349 181.554 152.252 181.546C152.156 181.538 152.119 180.966 152.554 180.439C152.989 179.912 153.569 179.831 153.577 179.92Z" fill="white"/>
<path d="M155.808 180.077C155.86 180.161 155.518 180.447 155.333 180.934C155.148 181.422 155.2 181.864 155.107 181.889C155.015 181.913 154.785 181.417 155.023 180.813C155.26 180.209 155.78 179.992 155.808 180.077Z" fill="white"/>
<path d="M157.704 182.054C157.628 182.102 157.35 181.687 157.419 181.111C157.487 180.536 157.845 180.189 157.91 180.254C157.974 180.318 157.797 180.656 157.749 181.148C157.7 181.639 157.793 182.005 157.704 182.054Z" fill="white"/>
<path d="M152.679 177.773C152.679 177.87 152.208 177.882 151.705 178.087C151.201 178.293 150.851 178.591 150.779 178.53C150.706 178.47 150.984 178.015 151.584 177.777C152.184 177.54 152.703 177.685 152.679 177.773Z" fill="white"/>
<path d="M106.824 170.461L102.753 179.763C102.753 179.763 110.842 187.011 110.258 188.814L91.937 181.566L97.683 166.813L106.824 170.461Z" fill="#455A64"/>
<path d="M97.4011 176.73C97.204 176.715 97.0081 176.772 96.8507 176.892C96.6933 177.011 96.5853 177.185 96.5474 177.379C96.5249 177.575 96.5782 177.773 96.6964 177.932C96.8146 178.09 96.9889 178.198 97.1836 178.232C97.3928 178.248 97.6004 178.186 97.7667 178.058C97.9331 177.93 98.0466 177.746 98.0856 177.54C98.0856 177.137 97.7192 176.678 97.3246 176.734" fill="#E0E0E0"/>
<path d="M109.9 187.598C109.9 187.598 110.576 188.279 110.258 188.806L91.9369 181.558L92.5771 180.097L109.892 187.586" fill="#263238"/>
<path d="M103.083 179.787C103.047 179.875 102.583 179.738 102.028 179.851C101.472 179.964 101.09 180.254 101.021 180.181C100.953 180.109 101.291 179.65 101.963 179.525C102.636 179.4 103.139 179.71 103.083 179.787Z" fill="white"/>
<path d="M104.693 181.341C104.693 181.433 104.234 181.433 103.779 181.691C103.324 181.949 103.083 182.315 102.974 182.279C102.865 182.243 103.03 181.711 103.598 181.401C104.166 181.091 104.726 181.256 104.693 181.341Z" fill="white"/>
<path d="M104.878 184.071C104.79 184.071 104.842 183.564 105.281 183.165C105.72 182.766 106.199 182.734 106.207 182.823C106.215 182.911 105.853 183.072 105.511 183.407C105.168 183.741 104.971 184.099 104.878 184.071Z" fill="white"/>
<path d="M103.779 177.576C103.711 177.64 103.348 177.359 102.829 177.173C102.31 176.988 101.855 177.012 101.839 176.92C101.822 176.827 102.326 176.654 102.934 176.855C103.542 177.057 103.852 177.512 103.779 177.576Z" fill="white"/>
<path d="M113.681 119.363L107.262 145.399C107.262 145.399 95.6858 164.888 93.7249 174.641L104.315 178.804C104.315 178.804 112.018 160.02 114.277 156.573C115.293 155.028 116.461 153.589 117.764 152.276C118.611 151.436 119.218 150.385 119.524 149.232L124.384 130.657L113.681 119.363Z" fill="#263238"/>
<path d="M110.947 115.199C110.947 115.199 111.841 122.173 118.553 125.266L132.695 148.298C132.695 148.298 133.802 155.788 135.916 162.097C138.03 168.407 142.302 180.568 142.302 180.568L153.936 176.219L146.522 150.875L145.314 142.085L133.774 112.69L123.86 106.747L110.947 115.199Z" fill="#263238"/>
<path d="M110.947 115.199L111.16 115.054L111.8 114.627L114.313 112.968L123.84 106.707L123.872 106.687L123.905 106.707L133.826 112.638V112.662L145.391 142.029V142.049C145.773 144.827 146.196 147.803 146.599 150.839C148.612 157.684 150.746 165.009 152.953 172.555C153.31 173.771 153.664 174.979 154.016 176.179L154.044 176.271L153.952 176.304L142.319 180.652L142.218 180.689L142.186 180.588C140.172 174.745 138.223 169.12 136.383 163.785C135.92 162.452 135.465 161.131 135.087 159.81C134.708 158.49 134.366 157.177 134.056 155.88C133.444 153.287 132.953 150.754 132.566 148.298V148.33L118.505 125.29L118.529 125.31C116.828 124.515 115.318 123.364 114.1 121.936C113.207 120.887 112.474 119.712 111.925 118.448C111.586 117.669 111.316 116.86 111.12 116.032C111.051 115.759 111.011 115.545 110.987 115.4C110.963 115.255 110.959 115.183 110.959 115.183C110.959 115.183 110.959 115.255 111.003 115.396C111.047 115.537 111.072 115.751 111.148 116.028C111.356 116.845 111.633 117.643 111.978 118.412C112.533 119.663 113.268 120.825 114.16 121.863C115.383 123.277 116.893 124.413 118.589 125.197L132.759 148.214V148.234C133.162 150.682 133.645 153.211 134.257 155.8C134.567 157.092 134.905 158.401 135.288 159.718C135.671 161.034 136.122 162.347 136.585 163.68C138.433 169.015 140.378 174.641 142.399 180.479L142.266 180.419L153.899 176.07L153.835 176.195C153.486 174.995 153.131 173.787 152.772 172.571L146.426 150.851C146.023 147.815 145.596 144.839 145.218 142.061V142.085L133.697 112.69L133.73 112.727L123.824 106.771H123.884L114.357 113.004L111.821 114.639L111.168 115.062L110.947 115.199Z" fill="#455A64"/>
<path d="M117.176 65.4414C117.176 65.4414 113.786 68.0506 112.139 70.966C110.166 74.4571 109.952 79.6314 109.892 87.6686C109.831 95.1018 110.943 97.1675 110.516 99.9701C109.674 105.442 109.05 123.808 109.05 123.808C109.05 123.808 119.922 119.632 122.032 117.768L124.154 115.924L137.76 120.422L135.014 103.703L133.13 82.8648L130.714 71.8116L130.311 67.4748L118.626 62.7797L117.176 65.4414Z" fill="#455A64"/>
<path d="M129.872 67.2453C130.013 67.2735 129.538 68.2278 128.7 69.6291L128.664 69.6855L128.6 69.6613C127.42 69.2023 125.858 68.6265 124.15 68.0023C122.226 67.3017 120.486 66.6494 119.242 66.142C118.618 65.8883 118.118 65.6749 117.776 65.5179C117.594 65.4476 117.419 65.3613 117.253 65.2602C117.444 65.3028 117.63 65.3648 117.808 65.4454L119.294 66.0051L124.223 67.805C125.93 68.4292 127.488 69.0131 128.652 69.5124L128.555 69.5446C129.433 68.1715 129.953 67.2655 129.872 67.2453Z" fill="#263238"/>
<path d="M143.933 58.5638C143.933 58.5638 143.072 57.2229 142.258 55.9868C141.445 54.7506 140.213 54.1425 140.015 53.4983C139.818 52.854 138.735 49.983 138.562 49.2703C138.411 48.58 138.341 47.8747 138.352 47.1684C138.352 47.1684 139.242 46.7899 139.669 48.0623C139.927 48.8273 140.748 51.4245 140.925 51.5534C141.103 51.6823 141.328 51.493 141.328 51.493C140.962 50.5205 140.646 49.53 140.382 48.5253C140.342 48.0542 140.507 44.9295 140.507 44.9295C140.727 44.885 140.957 44.9211 141.153 45.0311C141.35 45.1412 141.5 45.318 141.578 45.5295C142.001 46.3348 142.017 48.3482 142.017 48.3482L142.657 50.5951L142.431 48.3723L142.753 44.2853C143.066 44.3299 143.358 44.4698 143.588 44.6859C143.819 44.902 143.977 45.1839 144.042 45.4933C144.312 46.5966 143.953 48.1348 144.135 48.4609C144.316 48.7871 144.513 50.7601 144.513 50.7601C144.513 50.7601 144.735 45.9684 145.246 45.8315C145.757 45.6946 146.176 46.202 146.104 47.1684C146.031 48.1348 146.011 50.1803 146.277 51.0823C146.543 51.9843 149.269 55.5116 149.047 57.0578C148.911 57.9921 148.827 58.933 148.793 59.8765H144.123L143.933 58.5638Z" fill="#FFBF9D"/>
<path d="M127.549 70.6318C127.81 70.7324 138.968 73.4947 138.968 73.4947C138.968 73.4947 141.461 69.468 141.827 68.3003C142.194 67.1326 144.155 59.3531 144.155 59.3531L148.87 58.9101C148.87 58.9101 147.662 78.9992 145.955 80.0823C144.247 81.1655 141.525 81.7131 141.348 81.6527C141.171 81.5923 129.288 82.4178 123.027 77.4851C116.765 72.5525 127.549 70.6318 127.549 70.6318Z" fill="#FFBF9D"/>
<g opacity="0.3">
<path opacity="0.3" d="M119.552 81.2662C120.749 82.6217 122.347 83.5609 124.114 83.9479C127.074 84.6002 133.375 85.7558 133.375 85.7558L133.069 82.6634L119.379 81.1977" fill="black"/>
</g>
<path d="M114.583 77.014C115.598 79.1562 117.853 81.4433 122.809 81.9628C132.622 82.9775 140.052 83.5171 143.261 83.0339C146.47 82.5507 147.747 75.7576 148.093 75.5483C149.091 74.9201 149.027 72.7618 148.165 72.1175C145.717 70.2854 140.809 68.8962 140.478 69.0452C138.525 70.0156 139.162 72.2866 139.162 72.2866L126.719 69.5404C125.286 68.9444 123.791 68.5095 122.262 68.2439" fill="#455A64"/>
<path d="M122.262 68.2439C122.262 68.2439 122.366 68.2439 122.568 68.2842C122.769 68.3244 123.071 68.3728 123.458 68.4573C124.58 68.7119 125.679 69.0594 126.743 69.4962L139.178 72.2021L139.073 72.3149C138.889 71.6013 138.946 70.8468 139.234 70.1687C139.393 69.8214 139.634 69.5176 139.935 69.2828C140.088 69.1638 140.251 69.0587 140.422 68.9687C140.481 68.9512 140.542 68.9417 140.603 68.9405H140.752C140.853 68.9405 140.941 68.9727 141.038 68.9888C142.568 69.3507 144.061 69.8563 145.496 70.4988C146.252 70.8283 146.983 71.2132 147.682 71.6505C147.855 71.7632 148.028 71.888 148.202 72.0088C148.381 72.1449 148.527 72.3197 148.628 72.5202C148.825 72.9156 148.927 73.3512 148.926 73.7927C148.937 74.2394 148.837 74.6819 148.636 75.0812C148.525 75.2872 148.368 75.4649 148.177 75.6006C148.129 75.6248 148.097 75.7295 148.057 75.8261L147.952 76.1281C147.686 76.9335 147.42 77.7952 147.098 78.6247C146.676 79.8142 146.058 80.9248 145.27 81.9105C144.984 82.2851 144.62 82.5924 144.203 82.8109C143.785 83.0293 143.325 83.1536 142.854 83.1748C142.552 83.2191 142.25 83.2272 141.952 83.2513C140.744 83.3238 139.584 83.3077 138.437 83.2755C137.289 83.2433 136.166 83.1829 135.075 83.1144C130.698 82.8326 126.772 82.4339 123.478 82.0917C122.691 82.0227 121.909 81.9098 121.134 81.7534C120.447 81.6064 119.774 81.4017 119.121 81.1414C118.063 80.7305 117.094 80.1209 116.266 79.3455C115.749 78.8506 115.304 78.2854 114.945 77.6663C114.817 77.4539 114.705 77.2318 114.611 77.0019C114.611 77.0019 114.724 77.2315 114.982 77.6462C115.354 78.2497 115.805 78.8008 116.322 79.2851C117.15 80.0437 118.115 80.6369 119.165 81.0326C119.819 81.2848 120.492 81.4828 121.179 81.6246C121.951 81.7726 122.73 81.8788 123.514 81.9427C126.808 82.2688 130.734 82.6514 135.103 82.9252C136.198 82.9896 137.317 83.046 138.461 83.0742C139.605 83.1023 140.776 83.1185 141.96 83.05C142.254 83.0218 142.556 83.0138 142.85 82.9695C143.144 82.954 143.433 82.8984 143.712 82.8044C144.268 82.5898 144.759 82.2347 145.137 81.7735C145.909 80.8069 146.513 79.7181 146.925 78.5522C147.247 77.7469 147.509 76.8972 147.775 76.0677L147.887 75.7537C147.887 75.7053 147.928 75.653 147.952 75.5966C147.967 75.5655 147.984 75.5359 148.004 75.508C148.02 75.4886 148.037 75.4711 148.057 75.4557L148.085 75.4315C148.252 75.3158 148.39 75.1628 148.487 74.9846C148.676 74.6104 148.767 74.1951 148.753 73.7766C148.754 73.3692 148.662 72.9669 148.483 72.6008C148.396 72.4279 148.27 72.2766 148.117 72.1578C147.944 72.0411 147.779 71.9162 147.606 71.8075C146.916 71.3734 146.195 70.9925 145.447 70.668C144.028 70.0282 142.552 69.524 141.038 69.162C140.946 69.162 140.853 69.1217 140.764 69.1137H140.631H140.543C140.384 69.1984 140.233 69.2967 140.092 69.4076C139.811 69.6192 139.586 69.8955 139.436 70.2129C139.169 70.8499 139.114 71.5557 139.278 72.2263L139.315 72.3672L139.174 72.335L126.76 69.5566C125.705 69.1128 124.617 68.752 123.506 68.4774C123.103 68.3848 122.825 68.3204 122.624 68.2801C122.423 68.2399 122.262 68.2439 122.262 68.2439Z" fill="#263238"/>
<path d="M143.261 76.1725C142.975 76.1015 142.702 75.9831 142.455 75.8222C141.838 75.4777 141.269 75.0525 140.764 74.5578C140.257 74.0649 139.813 73.5102 139.444 72.9068C139.276 72.6596 139.146 72.388 139.061 72.1015C139.613 72.9149 140.231 73.6812 140.909 74.3927C141.638 75.055 142.425 75.6507 143.261 76.1725Z" fill="#263238"/>
<path d="M55.6566 109.336C55.6566 109.336 58.1532 109.469 59.6833 110.439C61.2134 111.41 63.71 112.908 64.7368 114.776C65.2079 115.634 63.867 115.815 63.2066 115.316C62.5463 114.816 61.5275 113.882 61.0242 113.765L60.5209 113.653C60.9798 114.692 61.4918 115.706 62.055 116.693C62.5745 117.498 63.0254 118.835 61.4671 118.899C61.4671 118.899 60.4121 120.268 59.3491 119.254C59.3491 119.254 58.5196 120.494 57.1828 118.775C57.1828 118.775 56.4056 119.757 56.0794 119.383C55.7533 119.008 54.6902 118.408 54.3802 117.176C53.9176 115.741 53.3799 114.331 52.7695 112.952L55.6566 109.336Z" fill="#FFBF9D"/>
<path d="M34.4119 76.5067C33.1322 76.9188 32.0277 77.7482 31.2752 78.8623C30.3168 80.3361 30.0229 82.889 30.2967 84.7895C30.8765 88.7961 32.7127 95.5568 33.7475 99.8976C34.1019 101.395 34.8307 104.077 36.9689 105.499L52.2259 114.647L56.3049 108.607L42.3968 97.2722L39.6466 81.7373L34.4119 76.5067Z" fill="#455A64"/>
<path d="M31.7744 91.7758C31.7953 91.8265 31.8115 91.8791 31.8227 91.9328L31.9516 92.4039C32.0603 92.8308 32.2133 93.4428 32.4147 94.228C32.8173 95.8387 33.3891 98.1258 34.1018 100.973C34.5156 102.523 35.3921 103.911 36.6145 104.951C37.3127 105.51 38.0593 106.006 38.8452 106.433L41.2975 107.915L52.2862 114.551L52.1453 114.583L53.615 112.404L56.2243 108.527L56.2445 108.668L42.4612 97.3165H42.437V97.2883C41.527 93.4589 40.8666 90.3222 40.4478 88.1397C40.2425 87.0485 40.0975 86.1989 40.0049 85.619C39.9646 85.3371 39.9324 85.1157 39.9083 84.9586C39.8841 84.8016 39.8801 84.7331 39.8801 84.7331C39.902 84.8058 39.9194 84.8798 39.9324 84.9546C39.9606 85.1116 40.0009 85.3291 40.0492 85.611C40.1579 86.1868 40.315 87.0364 40.5405 88.1236C40.9794 90.298 41.6639 93.4267 42.5941 97.2521L42.5659 97.2078L56.3733 108.507L56.4458 108.567L56.3934 108.643L53.7842 112.521L52.3144 114.7L52.2621 114.78L52.1735 114.732L41.2008 108.076L38.7526 106.59C37.9614 106.159 37.2096 105.659 36.5057 105.096C35.2622 104.031 34.3754 102.61 33.9649 101.025C33.2764 98.1701 32.7247 95.8629 32.3543 94.2643C32.1731 93.4589 32.0281 92.859 31.9274 92.4321L31.8107 91.9369C31.7948 91.8841 31.7827 91.8303 31.7744 91.7758Z" fill="#263238"/>
<path d="M32.0242 78.6529C32.1189 78.5907 32.2239 78.5457 32.3342 78.52C32.6265 78.4297 32.9254 78.3624 33.2281 78.3187C34.2381 78.163 35.2716 78.3028 36.2038 78.7213C37.1049 79.1911 37.8702 79.8843 38.4266 80.7346C38.5953 80.9916 38.7306 81.269 38.8292 81.5601C38.8725 81.6636 38.897 81.7741 38.9017 81.8862C38.7277 81.5165 38.5272 81.1599 38.3017 80.8192C37.7286 80.0257 36.9786 79.3764 36.1112 78.9227C35.2116 78.524 34.2223 78.3711 33.2442 78.4797C32.4913 78.5401 32.0362 78.6891 32.0242 78.6529Z" fill="#263238"/>
</svg>
