<svg width="97" height="61" viewBox="0 0 97 61" fill="none" xmlns="http://www.w3.org/2000/svg">
<path d="M55.9143 9.55317C57.3334 8.82568 58.8219 8.23459 60.3535 7.79546C61.885 7.35633 63.4585 7.06916 65.0427 6.93874C68.2123 6.67669 71.4263 7.05001 74.4427 8.01921C77.4592 8.98721 80.2782 10.5499 82.6869 12.5936C83.8918 13.6142 84.9938 14.7533 85.9726 15.9882C86.9514 17.223 87.8069 18.5536 88.5284 19.9511C89.2451 21.3511 89.8278 22.818 90.2598 24.3281C90.6929 25.8369 90.9753 27.3876 91.1033 28.9503C91.3606 32.0745 90.9921 35.2417 90.0372 38.2151C89.0824 41.1885 87.5412 43.9669 85.5275 46.3396C84.5212 47.5266 83.3988 48.6118 82.1819 49.5762C80.9651 50.5407 79.6537 51.3842 78.2764 52.0938C79.6405 51.3579 80.934 50.4916 82.1281 49.508C83.3222 48.5245 84.4183 47.4237 85.3947 46.2271C87.3486 43.8352 88.8192 41.0581 89.7058 38.111C90.5912 35.1627 90.8928 32.0469 90.584 28.997C90.4309 27.4714 90.1258 25.9637 89.6759 24.5016C89.2272 23.0394 88.6337 21.6227 87.9122 20.2754C87.1871 18.9305 86.3327 17.6573 85.3635 16.4811C84.3943 15.3049 83.3103 14.2257 82.1317 13.2636C79.7745 11.3384 77.038 9.8906 74.134 9.01832C71.23 8.14604 68.1597 7.8493 65.1552 8.15442C63.6535 8.30638 62.1674 8.60671 60.7268 9.04943C59.2862 9.49215 57.891 10.0761 56.564 10.788L56.5628 10.7892C56.223 10.9711 55.8006 10.8442 55.6188 10.5044C55.4369 10.1646 55.5637 9.74223 55.9035 9.56035C55.9059 9.55677 55.9107 9.55437 55.9143 9.55317Z" fill="#CF3C27"/>
<path d="M88.1492 31.2656C87.7651 31.244 87.436 31.5384 87.4145 31.9225L87.4121 31.9572L87.3702 32.7014L87.3594 32.8881C87.3559 32.9503 87.3535 33.0125 87.3451 33.0735L87.3056 33.4445L87.2661 33.8154L87.247 34.0009C87.2398 34.0631 87.2278 34.1241 87.2194 34.1851L87.1034 34.921C87.0866 35.0442 87.0567 35.1651 87.0316 35.2871L86.955 35.6521L86.8784 36.017L86.7839 36.3772L86.6894 36.7373C86.6559 36.857 86.6296 36.979 86.5889 37.0963L86.3627 37.8071C86.3436 37.8657 86.3268 37.9267 86.3041 37.9841L86.2383 38.1588L86.1079 38.5082L85.9774 38.8576C85.9308 38.9725 85.8793 39.0862 85.8303 39.201L85.6831 39.5444C85.6328 39.6581 85.5886 39.7754 85.5311 39.8854L85.2021 40.5567C85.1494 40.6704 85.0872 40.7781 85.0274 40.8869L84.8467 41.2136L84.666 41.5414L84.4698 41.8597L84.2736 42.178C84.209 42.2845 84.1443 42.391 84.0714 42.4927L83.649 43.1101C83.0639 43.9178 82.4261 44.6883 81.7369 45.4111C81.0381 46.1254 80.2927 46.7931 79.5054 47.4093C78.7109 48.0171 77.8733 48.5651 77.0034 49.0605L76.3417 49.4147C76.2328 49.4757 76.118 49.5271 76.0055 49.581L75.6657 49.7413L75.3258 49.9017L74.9788 50.0452L74.6319 50.1888C74.5158 50.2367 74.4009 50.2869 74.2825 50.3264L73.5753 50.5801L73.4868 50.6124L73.397 50.6399L73.2175 50.695L72.8586 50.8039C72.7389 50.8397 72.6193 50.878 72.4984 50.9127L72.1335 51.0037L71.7685 51.0958C71.6465 51.1269 71.5256 51.158 71.4024 51.1808L70.6641 51.3267C70.5421 51.3543 70.4164 51.3674 70.2932 51.3878L69.9211 51.4428L69.549 51.4978L69.1744 51.5337L68.7999 51.5696L68.6121 51.5876L68.5187 51.5972L68.4242 51.6019L67.6716 51.6354L67.4837 51.6438C67.4215 51.645 67.3581 51.6438 67.2959 51.6438L66.919 51.6414C66.4164 51.6498 65.9151 51.6079 65.4125 51.5828C65.1624 51.5613 64.9124 51.5302 64.6623 51.505C64.5378 51.4907 64.4122 51.4799 64.2878 51.4631L63.9156 51.4045L63.5435 51.3459C63.4191 51.3255 63.2946 51.3088 63.1726 51.2801L62.4343 51.1245C62.3111 51.1018 62.1902 51.0671 62.0682 51.0348L61.7032 50.9391L61.3383 50.8433C61.2175 50.8074 61.099 50.768 60.9781 50.7297L60.618 50.616L60.4385 50.5586L60.3488 50.5298L60.2602 50.4963L59.5531 50.2319C59.4944 50.2092 59.4346 50.19 59.3772 50.1637L59.2037 50.0895L58.8567 49.9399L58.5097 49.7904C58.396 49.7365 58.2835 49.6803 58.1699 49.6253L57.83 49.4589C57.7176 49.4027 57.6027 49.3513 57.4938 49.2878L56.8321 48.9229C55.9622 48.4132 55.1223 47.8508 54.3302 47.2262C53.5428 46.5944 52.7974 45.9112 52.0998 45.1801C51.413 44.4383 50.7753 43.6521 50.1925 42.8253C49.8431 42.3204 49.5189 41.7975 49.215 41.2638C49.0319 41.3656 48.8404 41.4541 48.6466 41.5307C48.9589 42.099 49.2915 42.6554 49.6541 43.1939C50.244 44.0554 50.8901 44.8762 51.5889 45.6528C52.2996 46.4185 53.0606 47.1377 53.8671 47.8029C54.6796 48.4622 55.5411 49.0581 56.4373 49.5989L57.1193 49.9878C57.2318 50.0548 57.3502 50.1111 57.4663 50.1709L57.8169 50.3492C57.9341 50.4078 58.0502 50.4688 58.1675 50.5263L58.5264 50.6866L58.8854 50.8469L59.0649 50.9271C59.1247 50.9546 59.1869 50.9762 59.2467 51.0001L59.979 51.2849L60.0712 51.3208L60.1645 51.3519L60.3512 51.4141L60.7245 51.5385C60.8489 51.5792 60.9734 51.6223 61.0978 51.6618L61.4771 51.7671L61.8564 51.8724C61.9832 51.9071 62.1089 51.9453 62.2369 51.9717L63.0039 52.1452C63.1319 52.1763 63.2611 52.1966 63.3904 52.2194L63.778 52.2864L64.1657 52.3534C64.295 52.3737 64.4254 52.3857 64.5558 52.4024C64.8166 52.4335 65.0763 52.4682 65.3371 52.4946C65.86 52.5293 66.3841 52.5795 66.9094 52.5783L67.303 52.5855C67.3689 52.5867 67.4347 52.5891 67.5005 52.5891L67.6979 52.5831L68.4852 52.5592L68.5833 52.5556L68.6815 52.5472L68.8777 52.5317L69.2702 52.4993L69.6626 52.467L70.0539 52.4156L70.4452 52.3641C70.5756 52.3462 70.706 52.333 70.8352 52.3067L71.6118 52.1643C71.7422 52.1428 71.869 52.1117 71.9971 52.0806L72.3812 51.9896L72.7653 51.8987C72.8921 51.8652 73.0177 51.8269 73.1446 51.791L73.5239 51.6809L73.7141 51.6259L73.8086 51.5984L73.902 51.566L74.6486 51.31C74.7742 51.2693 74.8963 51.219 75.0183 51.17L75.3857 51.024L75.753 50.8768L76.1132 50.7129L76.4721 50.549C76.5918 50.4939 76.7126 50.4413 76.8287 50.3791L77.5311 50.0165C78.4548 49.5092 79.3474 48.9432 80.1934 48.3127C81.0333 47.6749 81.8314 46.9809 82.5805 46.2355C83.3199 45.4816 84.0067 44.6764 84.6397 43.8292L85.0968 43.1819C85.1746 43.0754 85.2452 42.9629 85.3158 42.8517L85.5287 42.5166L85.7417 42.1816L85.9391 41.837L86.1354 41.4924C86.2 41.3775 86.2682 41.2638 86.3256 41.1442L86.6846 40.4358C86.7468 40.3186 86.7959 40.1965 86.8521 40.0757L87.0136 39.7131C87.0675 39.5923 87.1225 39.4714 87.174 39.3494L87.3188 38.9797L87.4623 38.6099L87.5341 38.4245C87.5593 38.3634 87.5772 38.2988 87.5987 38.2366L87.85 37.4828C87.8943 37.3584 87.9254 37.2291 87.9625 37.1011L88.069 36.7182L88.1755 36.3353L88.2628 35.9476L88.3502 35.56C88.3777 35.4307 88.4124 35.3015 88.4315 35.1711L88.5667 34.3873C88.5775 34.3215 88.5907 34.2569 88.5991 34.1911L88.623 33.9937L88.6708 33.5988L88.7187 33.204C88.7283 33.1382 88.7319 33.0724 88.7367 33.0065L88.751 32.8079L88.8061 32.0146C88.8061 32.0122 88.8061 32.0074 88.8073 32.005C88.8276 31.6162 88.5332 31.2871 88.1492 31.2656Z" fill="#282828"/>
<path d="M46.7177 28.0888L46.7321 28.0002L46.7919 27.6233L46.8517 27.2464L46.9307 26.8731L47.0097 26.4998C47.0372 26.3753 47.0587 26.2497 47.0946 26.1276L47.2896 25.3894C47.3196 25.2661 47.359 25.1453 47.3985 25.0232L47.5146 24.6595L47.6307 24.2957C47.6725 24.1761 47.7192 24.0576 47.7635 23.938L47.8975 23.5802L47.9645 23.4007L47.998 23.311L48.0363 23.2236L48.3378 22.5225C48.3857 22.404 48.4431 22.2903 48.4993 22.1767L48.6669 21.8333L48.8344 21.4899L49.0186 21.1548L49.2029 20.8198C49.2651 20.7085 49.3238 20.5948 49.3932 20.4883L49.7952 19.8374C50.3528 18.9831 50.9642 18.1647 51.6343 17.3929C52.3115 16.6283 53.039 15.9104 53.8132 15.2415C54.5945 14.5822 55.4225 13.9792 56.2864 13.4312L56.9445 13.0375C57.0534 12.9693 57.1671 12.9107 57.2796 12.8508L57.6182 12.6702L57.9568 12.4895L58.3038 12.3244L58.6508 12.1604C58.7669 12.1054 58.8817 12.0492 59.0002 12.0025L59.7097 11.7081C59.827 11.6567 59.9491 11.6184 60.0699 11.5729L60.4313 11.4425C60.5521 11.3994 60.6718 11.3552 60.7938 11.3133L61.1612 11.202L61.5285 11.0895L61.7128 11.0333C61.7738 11.0142 61.8372 11.001 61.8982 10.9842L62.6437 10.7976C62.7669 10.7629 62.8937 10.7437 63.0194 10.7174L63.3963 10.642L63.7732 10.5678L64.1537 10.5116L64.5342 10.4554C64.661 10.4374 64.7879 10.4147 64.9159 10.4051L65.6817 10.3321C65.7451 10.3261 65.8097 10.319 65.8731 10.3154L66.0658 10.307L66.4499 10.2902L66.8352 10.2735C66.8998 10.2699 66.9632 10.2699 67.0278 10.2711L67.2204 10.2723L67.991 10.2771L67.2204 10.2615L67.0278 10.2579C66.9632 10.2567 66.8998 10.2543 66.8352 10.2579L66.4499 10.2699L66.0646 10.2819L65.8719 10.2879C65.8073 10.2902 65.7439 10.2974 65.6793 10.3022L64.9111 10.3644C64.7831 10.3716 64.6563 10.3931 64.5282 10.4087L64.1453 10.459L63.7624 10.5092L63.3831 10.5786L63.0026 10.6492C62.877 10.6743 62.749 10.6923 62.6245 10.7246L61.8731 10.9017C61.8109 10.9172 61.7475 10.9292 61.6852 10.9483L61.4998 11.0022L61.1288 11.1099L60.7579 11.2176C60.6359 11.257 60.5138 11.3001 60.3918 11.342L60.0268 11.4676C59.906 11.5107 59.7815 11.5478 59.6631 11.5981L58.9452 11.884C58.8243 11.9295 58.7082 11.9857 58.591 12.0384L58.2392 12.1987L57.8874 12.3591L57.544 12.5361L57.2006 12.7132C57.0857 12.7719 56.9709 12.8305 56.8608 12.8975L56.1919 13.2852C55.3137 13.826 54.4689 14.4231 53.6696 15.0776C52.8787 15.7417 52.132 16.4584 51.4357 17.223C50.7465 17.9936 50.1159 18.8156 49.5379 19.6747L49.1215 20.3292C49.0498 20.4369 48.9887 20.5506 48.9241 20.663L48.7315 21.0005L48.54 21.3379L48.3641 21.6837L48.1882 22.0307C48.1296 22.1456 48.0698 22.2604 48.0195 22.3801L47.7025 23.0896L47.663 23.1782L47.6271 23.2691L47.5565 23.4498L47.4153 23.8123C47.3686 23.9332 47.3196 24.054 47.2753 24.1749L47.152 24.5434L47.0288 24.912C46.9881 25.0352 46.945 25.1572 46.9127 25.2829L46.7033 26.0319C46.6662 26.1564 46.6411 26.2832 46.6124 26.41L46.5262 26.7893L46.4413 27.1686L46.3743 27.5515L46.3085 27.9356L46.2786 28.1079C46.4233 28.0936 46.5717 28.0876 46.7177 28.0888Z" fill="#282828"/>
<path d="M49.118 24.7037L49.3693 24.0528L49.4327 23.8901C49.4531 23.8363 49.4746 23.7812 49.4985 23.7286L49.6409 23.4103L49.7833 23.092L49.8539 22.9329C49.8778 22.8802 49.9054 22.8288 49.9317 22.7773L50.2476 22.1551C50.2978 22.0498 50.3588 21.9517 50.4163 21.85L50.5898 21.5473L50.7633 21.2446L50.9511 20.9502L51.139 20.6571C51.2024 20.5601 51.261 20.4596 51.3316 20.3663L51.7373 19.7991C51.8031 19.7034 51.8761 19.6125 51.9479 19.5215L52.1644 19.2487L52.381 18.9759C52.4564 18.8874 52.533 18.8 52.6095 18.7127L52.8393 18.4506C52.9171 18.3645 52.99 18.2735 53.0726 18.1922L53.556 17.6908C53.635 17.6059 53.7211 17.5281 53.8061 17.4479L54.0597 17.2098L54.3134 16.9717L54.5779 16.7456L54.8423 16.5194C54.9308 16.444 55.0182 16.3687 55.1115 16.2993L55.6619 15.8745C56.411 15.3277 57.1935 14.8287 58.0083 14.3884C58.828 13.9576 59.6763 13.5807 60.545 13.2636C61.4173 12.9537 62.3111 12.7096 63.2157 12.5218L63.8977 12.3985C64.0114 12.3758 64.1263 12.3626 64.2399 12.3483L64.5833 12.3028L64.9267 12.2585L65.2726 12.2298L65.6184 12.2023C65.7332 12.1927 65.8481 12.182 65.9641 12.1808L66.657 12.158C66.7718 12.1521 66.8879 12.1592 67.0027 12.1592L67.3486 12.1652C67.4634 12.1676 67.5795 12.1676 67.6944 12.1724L68.0402 12.1951L68.386 12.2179C68.5008 12.225 68.6157 12.2322 68.7306 12.2478L69.4174 12.3279C69.5322 12.3387 69.6459 12.3614 69.7596 12.3794L70.1006 12.4368L70.4416 12.4943L70.779 12.5684L71.1165 12.6426L71.2852 12.6797C71.3414 12.6917 71.3976 12.7049 71.4527 12.7204L72.1192 12.9035L72.2855 12.9489C72.3405 12.9657 72.3944 12.9848 72.4494 13.0028L72.7773 13.1105C73.2176 13.2445 73.6436 13.4228 74.0731 13.5867C74.2849 13.6764 74.4943 13.7722 74.7049 13.8655C74.8102 13.9134 74.9155 13.9576 75.0196 14.0079L75.3271 14.1634L75.6346 14.3202C75.7375 14.3728 75.8404 14.4231 75.9397 14.4817L76.538 14.8239C76.6385 14.879 76.7342 14.9436 76.8312 15.0046L77.1219 15.1913L77.4115 15.3779C77.506 15.4437 77.5993 15.5107 77.6927 15.5777L77.9727 15.7776C78.0648 15.8458 78.1617 15.908 78.2502 15.981L78.7911 16.4081C78.882 16.4775 78.9682 16.5541 79.0543 16.6295L79.314 16.8568L79.5736 17.0842C79.6574 17.1632 79.7388 17.2433 79.8225 17.3223L80.0702 17.5616C80.1516 17.6418 80.2377 17.7195 80.3143 17.8045L80.7857 18.3059C81.3972 18.9903 81.9655 19.7118 82.4764 20.4728C82.9802 21.2386 83.4325 22.0367 83.8309 22.8611C84.2162 23.6915 84.5465 24.547 84.8181 25.4193C85.0825 26.2951 85.2787 27.1902 85.4199 28.0923L85.5085 28.772C85.5252 28.8845 85.5312 28.9993 85.542 29.113L85.5695 29.454C85.5779 29.5677 85.5886 29.6813 85.5958 29.795L85.6066 30.1372L85.6174 30.4794C85.621 30.5931 85.6257 30.708 85.6222 30.8216L85.6102 31.5061C85.6114 31.6197 85.5982 31.7334 85.5922 31.8471L85.5695 32.1881C85.5611 32.3018 85.5551 32.4154 85.5456 32.5291L85.5061 32.8689L85.4666 33.2087C85.4534 33.3224 85.4427 33.4349 85.4211 33.5474L85.3075 34.221C85.2907 34.3335 85.2644 34.4448 85.2405 34.556L85.1675 34.8899L85.0933 35.2237C85.067 35.3338 85.0346 35.4439 85.0047 35.554C84.9437 35.7729 84.8863 35.9943 84.8217 36.2121C84.6769 36.644 84.5465 37.0795 84.373 37.5007L84.2497 37.819C84.2294 37.8717 84.209 37.9255 84.1875 37.9781L84.1181 38.1337L83.8405 38.7571C83.8178 38.8097 83.7926 38.86 83.7663 38.9114L83.6885 39.0634L83.5342 39.3673L83.3798 39.6712L83.2099 39.9668L83.04 40.2623C82.9826 40.3605 82.9299 40.461 82.8665 40.5555L82.498 41.1298C82.4381 41.2267 82.3711 41.3189 82.3053 41.411L82.1079 41.6886L81.9105 41.9662C81.8423 42.0571 81.7705 42.1445 81.6999 42.2342L81.4881 42.5011C81.4163 42.5896 81.3505 42.6817 81.2727 42.7655L80.824 43.2776C80.751 43.365 80.6709 43.4451 80.5919 43.5265L80.355 43.7718L80.1181 44.0171L79.8704 44.2504L79.6227 44.4837C79.5401 44.5615 79.4588 44.6405 79.3714 44.7123L78.8533 45.1538C78.1485 45.7233 77.4079 46.2486 76.6325 46.7177C75.8524 47.1783 75.0423 47.5852 74.2095 47.9381C73.3719 48.2803 72.5116 48.5627 71.6358 48.7889L70.9753 48.9408C70.8652 48.9684 70.7539 48.9875 70.6426 49.0066L70.3088 49.0665L69.975 49.1263L69.6387 49.1706L69.3025 49.2148C69.19 49.2292 69.0788 49.246 68.9663 49.2531L68.2914 49.3082C68.179 49.3201 68.0665 49.3189 67.954 49.3237L67.6154 49.3345C67.5029 49.3381 67.3904 49.3429 67.2768 49.3441L66.9381 49.3381L66.5995 49.3321C66.487 49.3309 66.3746 49.3297 66.2621 49.3201L65.5872 49.2747C65.4748 49.2699 65.3635 49.2519 65.251 49.24L64.9148 49.2005L64.5797 49.161L64.2459 49.1048L63.9133 49.0485C63.802 49.0282 63.6907 49.0138 63.5806 48.9875L62.9213 48.8415C62.8663 48.8284 62.8113 48.8188 62.7562 48.8044L62.5935 48.7602L62.268 48.6704L61.9426 48.5807C61.8875 48.5663 61.8349 48.5496 61.781 48.5316L61.6207 48.479L60.9794 48.2684L61.6231 48.4694L61.7846 48.5197C61.8385 48.5364 61.8923 48.5532 61.9462 48.5663L62.2728 48.6501L62.5995 48.7338L62.7622 48.7757C62.8173 48.7889 62.8723 48.7984 62.9273 48.8104L63.5878 48.9456C63.6979 48.9707 63.8092 48.9839 63.9205 49.0019L64.2531 49.0533L64.5857 49.1048L64.9208 49.1395L65.2558 49.1742C65.3671 49.1837 65.4784 49.2005 65.5908 49.2041L66.2633 49.2388C66.3758 49.2472 66.487 49.246 66.5995 49.246L66.9357 49.2471L67.272 49.2483C67.3844 49.2448 67.4957 49.2388 67.6082 49.234L67.9444 49.2184C68.0569 49.2124 68.1682 49.2113 68.2807 49.1981L68.9507 49.1335C69.062 49.1251 69.1733 49.1072 69.2846 49.0904L69.6172 49.0413L69.9498 48.9923L70.2801 48.9277L70.6103 48.8631C70.7204 48.8415 70.8305 48.8212 70.9394 48.7925L71.5915 48.6321C72.4554 48.3952 73.3037 48.1021 74.127 47.7515C74.9466 47.3901 75.7399 46.9761 76.5033 46.5107C77.2619 46.0368 77.9834 45.508 78.6702 44.9372L79.174 44.4957C79.2589 44.4239 79.3379 44.3449 79.4181 44.2672L79.6586 44.035L79.8991 43.8017L80.1276 43.5576L80.3562 43.3135C80.4327 43.2321 80.5093 43.152 80.5799 43.0658L81.0131 42.5561C81.0873 42.4723 81.1507 42.3814 81.2201 42.2941L81.4235 42.0284C81.4905 41.9399 81.5599 41.8525 81.6257 41.7628L81.816 41.4876L82.0062 41.2124C82.0696 41.1215 82.1342 41.0305 82.1905 40.9336L82.5423 40.3664C82.6033 40.2731 82.6535 40.1738 82.7086 40.0769L82.8701 39.7849L83.0316 39.493L83.1788 39.1938L83.326 38.8935L83.399 38.7439C83.4241 38.6937 83.448 38.6434 83.4684 38.592L83.7316 37.9781L83.7974 37.825C83.8178 37.7735 83.8357 37.7209 83.8561 37.6682L83.9721 37.3548C84.136 36.9408 84.2569 36.5124 84.3921 36.0888C84.4519 35.8746 84.5046 35.6593 84.5608 35.4439C84.5883 35.3362 84.6183 35.2297 84.6422 35.1208L84.7092 34.7942L84.7762 34.4675C84.7989 34.3586 84.8229 34.2497 84.8372 34.1397L84.9377 33.4816C84.9569 33.3727 84.9653 33.2614 84.9772 33.1513L85.0107 32.8199L85.0442 32.4884C85.0514 32.3783 85.0562 32.2671 85.0622 32.1558L85.0789 31.8232C85.0825 31.7119 85.0945 31.6018 85.0921 31.4905L85.0933 30.8252C85.0957 30.714 85.0897 30.6039 85.0837 30.4926L85.0682 30.16L85.0526 29.8273L85.0215 29.4959L84.9892 29.1644C84.9772 29.0544 84.9712 28.9431 84.9521 28.8342L84.8564 28.1761C84.7056 27.3026 84.5034 26.4387 84.2342 25.5952C83.959 24.754 83.6275 23.932 83.2434 23.1351C82.8474 22.3442 82.3999 21.5808 81.9033 20.8509C81.4007 20.1246 80.842 19.439 80.2461 18.7893L79.7866 18.3142C79.7112 18.2329 79.6287 18.1611 79.5485 18.0845L79.3068 17.8583L79.0651 17.6334L78.8126 17.4192L78.5614 17.205C78.4776 17.1332 78.3938 17.0615 78.3053 16.9956L77.7812 16.5936C77.6951 16.5242 77.6017 16.4656 77.512 16.4022L77.2404 16.2143C77.1494 16.1521 77.0597 16.0887 76.9688 16.0276L76.6876 15.8541L76.4076 15.6806C76.3142 15.6232 76.2221 15.5634 76.124 15.5119L75.5461 15.1925C75.4515 15.1374 75.351 15.0908 75.2529 15.0417L74.9562 14.8969L74.6594 14.7521C74.5601 14.7055 74.4572 14.6648 74.3567 14.6205C74.1545 14.5344 73.9535 14.4458 73.7501 14.3633C73.3361 14.2137 72.928 14.0486 72.5057 13.9277L72.191 13.8296C72.1383 13.814 72.0869 13.7961 72.033 13.7805L71.8739 13.7399L71.2361 13.5747C71.1835 13.5604 71.1296 13.5484 71.0758 13.5376L70.9142 13.5041L70.5912 13.4383L70.2681 13.3725L69.9427 13.3235L69.6172 13.2732C69.5083 13.2577 69.4006 13.2373 69.2917 13.2289L68.6372 13.1619C68.5283 13.1488 68.4183 13.144 68.3094 13.1392L67.9815 13.1224L67.6537 13.1057C67.5436 13.1033 67.4347 13.1045 67.3246 13.1045L66.9956 13.1033C66.8855 13.1045 66.7766 13.0985 66.6665 13.1069L66.0096 13.138C65.8995 13.1404 65.7907 13.1524 65.6818 13.1631L65.3551 13.1942L65.0285 13.2253L64.703 13.272L64.3775 13.3199C64.2699 13.3366 64.161 13.3498 64.0533 13.3725L63.4095 13.4982C62.5552 13.6884 61.714 13.9325 60.8932 14.2364C60.0772 14.5499 59.2815 14.9161 58.5145 15.3336C57.7523 15.7608 57.0224 16.2418 56.3248 16.7659L55.8127 17.1727C55.7265 17.2385 55.6452 17.3115 55.5626 17.3833L55.3173 17.5987L55.072 17.8141L54.8375 18.0414L54.603 18.2688C54.5252 18.3441 54.445 18.4183 54.372 18.4997L53.9257 18.9759C53.8492 19.0537 53.7822 19.1398 53.7116 19.2224L53.4998 19.4713C53.4292 19.555 53.3586 19.6364 53.2892 19.7202L53.0906 19.9786L52.8919 20.2371C52.8249 20.3232 52.7579 20.4094 52.6981 20.4991L52.3272 21.0352C52.2625 21.1225 52.2099 21.2182 52.1513 21.3104L51.979 21.588L51.8067 21.8656L51.6487 22.1515L51.4908 22.4363C51.4393 22.532 51.3831 22.6254 51.3376 22.7235L51.0516 23.3086C51.0277 23.3576 51.0026 23.4055 50.981 23.4558L50.9164 23.6053L50.7884 23.9045L50.6604 24.2036C50.6376 24.2527 50.6197 24.3041 50.6005 24.3556L50.5443 24.5087L50.3182 25.1201L50.3074 25.1501C50.1841 25.4827 49.8156 25.6514 49.4842 25.5294C49.1515 25.4061 48.9828 25.0376 49.1049 24.7061C49.1156 24.7109 49.118 24.7061 49.118 24.7037Z" fill="#F7B31C"/>
<path d="M50.9679 52.5257C50.8076 52.5257 50.646 52.4718 50.5132 52.3594C50.2141 52.1081 50.1758 51.6618 50.4271 51.3638L57.3957 43.0802C57.647 42.7811 58.0933 42.7428 58.3912 42.9941C58.6904 43.2453 58.7287 43.6917 58.4774 43.9896L51.5087 52.2732C51.3699 52.4407 51.1701 52.5257 50.9679 52.5257Z" fill="#282828"/>
<path d="M5.75061 34.6566C5.75061 34.1421 5.84873 33.6587 6.04616 33.204C6.24358 32.7493 6.514 32.352 6.85861 32.0122C7.20321 31.6724 7.60285 31.4068 8.05634 31.2129C8.51103 31.0203 8.99443 30.9234 9.50894 30.9234C10.0318 30.9234 10.5212 31.0203 10.9759 31.2129C11.4306 31.4056 11.8278 31.6724 12.1677 32.0122C12.5075 32.352 12.7755 32.7469 12.9729 33.1968C13.1704 33.6467 13.2685 34.1337 13.2685 34.6566C13.2685 35.1711 13.1692 35.6533 12.9729 36.1032C12.7755 36.5531 12.5087 36.9432 12.1736 37.2734C11.8386 37.6036 11.4414 37.8657 10.9819 38.0583C10.5224 38.251 10.0318 38.3479 9.50775 38.3479C8.99323 38.3479 8.50744 38.251 8.04797 38.0583C7.5885 37.8657 7.18885 37.6012 6.85023 37.2662C6.51041 36.9312 6.24239 36.5387 6.04496 36.0888C5.84873 35.6389 5.75061 35.1615 5.75061 34.6566ZM11.3696 34.6566C11.3696 34.3814 11.3217 34.1241 11.2248 33.8848C11.1279 33.6467 10.995 33.4349 10.8251 33.2518C10.6552 33.0688 10.4578 32.924 10.2329 32.8175C10.0079 32.7122 9.7662 32.6595 9.51014 32.6595C9.25288 32.6595 9.01238 32.7122 8.78743 32.8175C8.56248 32.9228 8.36505 33.0676 8.19514 33.2518C8.02523 33.4361 7.89242 33.6491 7.7955 33.892C7.69858 34.1349 7.65072 34.3897 7.65072 34.6566C7.65072 34.9234 7.69858 35.1735 7.7955 35.4068C7.89242 35.6413 8.02523 35.8471 8.19514 36.0266C8.36505 36.2061 8.56248 36.3485 8.78743 36.4538C9.01238 36.5591 9.25288 36.6117 9.51014 36.6117C9.7674 36.6117 10.0079 36.5615 10.2329 36.4597C10.4578 36.3592 10.6552 36.2192 10.8251 36.0398C10.995 35.8603 11.1279 35.6521 11.2248 35.4128C11.3205 35.1759 11.3696 34.9234 11.3696 34.6566Z" fill="#CF3C27"/>
<path d="M18.5859 30.9246C18.9987 30.9246 19.3828 31.0023 19.7358 31.1591C20.0887 31.3158 20.3951 31.5264 20.6511 31.7921C20.9084 32.0589 21.1106 32.3748 21.2578 32.7421C21.4049 33.1094 21.4779 33.5043 21.4779 33.9267V38.2103H19.591V34.0368C19.591 33.6419 19.4558 33.3188 19.1854 33.0664C18.9149 32.8139 18.5727 32.6871 18.1587 32.6871C17.9386 32.6871 17.734 32.7266 17.5461 32.8043C17.3582 32.8821 17.1943 32.9898 17.0567 33.1286C16.9191 33.2662 16.8114 33.4289 16.7325 33.618C16.6547 33.8058 16.6152 34.0104 16.6152 34.2306V38.2103H14.7151V31.049H16.6152V31.7932C16.827 31.518 17.1046 31.3039 17.448 31.1531C17.7938 30.9999 18.1731 30.9246 18.5859 30.9246Z" fill="#CF3C27"/>
<path d="M29.2316 31.1866L30.5956 34.781L31.9872 31.0622H34.0117L31.2992 38.2235H29.8526L28.4059 34.3395L26.9462 38.2235H25.4864L22.787 31.0622H24.8115L26.2163 34.781L27.5385 31.1866H29.2316Z" fill="#282828"/>
<path d="M34.8649 34.6566C34.8649 34.1421 34.963 33.6587 35.1604 33.204C35.3578 32.7493 35.6283 32.352 35.9729 32.0122C36.3175 31.6724 36.7171 31.4068 37.1706 31.2129C37.6253 31.0203 38.1099 30.9234 38.6232 30.9234C39.1461 30.9234 39.6355 31.0203 40.0901 31.2129C40.5448 31.4056 40.9421 31.6724 41.2819 32.0122C41.6217 32.352 41.8897 32.7469 42.0872 33.1968C42.2846 33.6467 42.3827 34.1337 42.3827 34.6566C42.3827 35.1711 42.2834 35.6533 42.0872 36.1032C41.8897 36.5531 41.6229 36.9432 41.2879 37.2734C40.9529 37.6036 40.5556 37.8657 40.0961 38.0583C39.6367 38.251 39.1461 38.3479 38.622 38.3479C38.1075 38.3479 37.6217 38.251 37.1622 38.0583C36.7027 37.8657 36.3031 37.6012 35.9645 37.2662C35.6247 36.9312 35.3566 36.5387 35.1592 36.0888C34.963 35.6389 34.8649 35.1615 34.8649 34.6566ZM40.4838 34.6566C40.4838 34.3814 40.4359 34.1241 40.339 33.8848C40.2421 33.6467 40.1093 33.4349 39.9394 33.2518C39.7695 33.0688 39.572 32.924 39.3471 32.8175C39.1221 32.7122 38.8804 32.6595 38.6244 32.6595C38.3671 32.6595 38.1266 32.7122 37.9017 32.8175C37.6767 32.9228 37.4793 33.0676 37.3094 33.2518C37.1395 33.4361 37.0067 33.6491 36.9098 33.892C36.8128 34.1349 36.765 34.3897 36.765 34.6566C36.765 34.9234 36.8128 35.1735 36.9098 35.4068C37.0067 35.6413 37.1395 35.8471 37.3094 36.0266C37.4793 36.2061 37.6767 36.3485 37.9017 36.4538C38.1266 36.5591 38.3671 36.6117 38.6244 36.6117C38.8816 36.6117 39.1221 36.5615 39.3471 36.4597C39.572 36.3592 39.7695 36.2192 39.9394 36.0398C40.1093 35.8603 40.2421 35.6521 40.339 35.4128C40.4348 35.1759 40.4838 34.9234 40.4838 34.6566Z" fill="#282828"/>
<path d="M45.7163 31.889C46.0657 31.5312 46.4785 31.2883 46.9559 31.1591C47.4334 31.0311 47.9108 30.9664 48.3882 30.9664L47.8103 32.7158C47.1582 32.7158 46.646 32.8654 46.2751 33.1633C45.903 33.4612 45.7175 33.9554 45.7175 34.6434V38.2103H43.8306V31.0622H45.7175V31.889H45.7163Z" fill="#282828"/>
<path d="M52.5067 30.9377C52.9386 30.9377 53.3335 31.0131 53.6912 31.1651C54.049 31.317 54.3613 31.5396 54.6281 31.8327V28.5829H56.5282V38.2091H54.6281V37.4242C54.0502 38.0392 53.3478 38.3467 52.521 38.3467C52.0436 38.3467 51.5937 38.2462 51.1713 38.044C50.7489 37.8418 50.3768 37.5689 50.0561 37.2243C49.7343 36.8797 49.4794 36.4801 49.2915 36.0266C49.1037 35.5719 49.0092 35.0921 49.0092 34.5872C49.0092 34.0822 49.1013 33.6072 49.2844 33.1621C49.4674 32.717 49.7187 32.3293 50.0346 31.9978C50.3517 31.6676 50.7226 31.408 51.1498 31.2201C51.5769 31.0322 52.0292 30.9377 52.5067 30.9377ZM54.6269 34.6434C54.6269 34.3682 54.5791 34.1085 54.4821 33.8656C54.3852 33.6227 54.2548 33.411 54.0897 33.2327C53.9246 33.0532 53.7295 32.9132 53.5046 32.8127C53.2796 32.7122 53.0343 32.6607 52.7675 32.6607C52.5007 32.6607 52.2554 32.711 52.0304 32.8127C51.8055 32.9132 51.6104 33.0532 51.4453 33.2327C51.2802 33.4122 51.1498 33.6204 51.0529 33.8597C50.9559 34.099 50.9081 34.3598 50.9081 34.6446C50.9081 34.9294 50.9535 35.1914 51.0457 35.4295C51.1378 35.6688 51.2658 35.8746 51.431 36.0493C51.5961 36.224 51.7911 36.3616 52.0161 36.4621C52.241 36.5638 52.4863 36.6141 52.7531 36.6141C53.02 36.6141 53.2677 36.5638 53.4974 36.4621C53.7271 36.3616 53.9246 36.224 54.0897 36.0493C54.2548 35.8746 54.3852 35.6664 54.4821 35.4223C54.5791 35.1783 54.6269 34.9186 54.6269 34.6434Z" fill="#282828"/>
<path d="M59.1858 36.0481C59.3413 36.2683 59.5734 36.4478 59.8809 36.5854C60.1885 36.723 60.5163 36.7924 60.8657 36.7924C61.2055 36.7924 61.4927 36.7254 61.726 36.5926C61.9605 36.4598 62.0766 36.3006 62.0766 36.1175C62.0766 35.9524 61.9773 35.8124 61.7811 35.6976C61.5836 35.5827 61.3407 35.4726 61.0512 35.3673C60.7616 35.262 60.4457 35.1495 60.1011 35.0299C59.7565 34.9102 59.4394 34.7667 59.1511 34.5955C58.8615 34.4256 58.6186 34.2162 58.4212 33.9686C58.2237 33.7209 58.1256 33.4134 58.1256 33.046C58.1256 32.7337 58.1986 32.4466 58.3458 32.1857C58.493 31.9237 58.6952 31.6963 58.9512 31.5037C59.2085 31.311 59.516 31.1615 59.8738 31.0562C60.2315 30.9509 60.618 30.8982 61.0308 30.8982C61.7105 30.8982 62.3063 31.0358 62.8209 31.311C63.3354 31.5862 63.6883 31.9584 63.881 32.4262L62.6832 33.1418C62.5636 32.912 62.3662 32.7337 62.091 32.6045C61.8158 32.4765 61.4891 32.4119 61.1134 32.4119C60.764 32.4119 60.4816 32.4669 60.2662 32.577C60.0509 32.6871 59.942 32.8342 59.942 33.0173C59.942 33.1465 60.0401 33.2578 60.2375 33.3547C60.4349 33.4517 60.685 33.5474 60.9877 33.6443C61.2905 33.7412 61.6147 33.8489 61.9581 33.9674C62.3027 34.087 62.6258 34.2378 62.9297 34.422C63.2325 34.6063 63.4825 34.8313 63.68 35.0969C63.8774 35.3637 63.9755 35.6892 63.9755 36.0745C63.9755 36.4047 63.9001 36.711 63.7482 36.9898C63.5962 37.2698 63.3856 37.5127 63.1152 37.7197C62.8448 37.9267 62.5229 38.087 62.1508 38.2019C61.7787 38.3168 61.373 38.3742 60.9315 38.3742C60.2435 38.3742 59.6249 38.2366 59.0793 37.9614C58.5324 37.6862 58.1268 37.3141 57.86 36.8462L59.1858 36.0481Z" fill="#282828"/>
</svg>
