<svg width="17" height="26" viewBox="0 0 17 26" fill="none" xmlns="http://www.w3.org/2000/svg">
<path d="M8.5 0C7.32544 0 6.375 0.95044 6.375 2.125V2.65625H1.59375C0.69104 2.65625 0 3.34729 0 4.25V23.9062C0 24.809 0.69104 25.5 1.59375 25.5H15.4062C16.309 25.5 17 24.809 17 23.9062V4.25C17 3.34729 16.309 2.65625 15.4062 2.65625H10.625V2.125C10.625 0.95044 9.67456 0 8.5 0ZM8.5 1.0625C9.13293 1.0625 9.5625 1.49207 9.5625 2.125V4.25H7.4375V2.125C7.4375 1.49207 7.86707 1.0625 8.5 1.0625ZM8.5 1.59375C8.2074 1.59375 7.96875 1.8324 7.96875 2.125C7.96875 2.4176 8.2074 2.65625 8.5 2.65625C8.7926 2.65625 9.03125 2.4176 9.03125 2.125C9.03125 1.8324 8.7926 1.59375 8.5 1.59375ZM12.9056 10.7806L13.6569 11.5319L6.90625 18.2825L3.34314 14.7194L4.09436 13.9681L6.90625 16.78L12.9056 10.7806Z" fill="url(#paint0_linear_18_419)"/>
<defs>
<linearGradient id="paint0_linear_18_419" x1="8.5" y1="0" x2="8.5" y2="25.5" gradientUnits="userSpaceOnUse">
<stop stop-color="#BD3434"/>
<stop offset="1" stop-color="#FFD88B"/>
</linearGradient>
</defs>
</svg>
