<svg width="26" height="26" viewBox="0 0 26 26" fill="none" xmlns="http://www.w3.org/2000/svg">
<path d="M11 1C8.80078 1 7 2.80469 7 5V6H9V5C9 3.88281 9.88281 3 11 3H15C16.1172 3 17 3.88281 17 5V6H19V5C19 2.80469 17.1992 1 15 1H11ZM4.875 7C2.18359 7 0 9.18359 0 11.875V21.125C0 23.8164 2.18359 26 4.875 26H21.125C23.8164 26 26 23.8164 26 21.125V11.875C26 9.18359 23.8164 7 21.125 7H4.875ZM13 13.9062C14.1602 13.9062 15.0938 14.8398 15.0938 16C15.0938 17.1602 14.1602 18.0938 13 18.0938C11.8398 18.0938 10.9062 17.1602 10.9062 16C10.9062 14.8398 11.8398 13.9062 13 13.9062Z" fill="url(#paint0_linear_18_417)"/>
<defs>
<linearGradient id="paint0_linear_18_417" x1="13" y1="1" x2="13" y2="21" gradientUnits="userSpaceOnUse">
<stop stop-color="#BB3284"/>
<stop offset="1" stop-color="#FF7979"/>
</linearGradient>
</defs>
</svg>
